<mxfile host="app.diagrams.net" agent="Mozilla/5.0 (Windows NT 10.0; Win64; x64; rv:137.0) Gecko/20100101 Firefox/137.0" version="26.2.5">
  <diagram name="Page-1" id="YnLf7lU-TetGmq674RSx">
    <mxGraphModel dx="2530" dy="3084" grid="1" gridSize="10" guides="1" tooltips="1" connect="1" arrows="1" fold="1" page="1" pageScale="1" pageWidth="850" pageHeight="1100" math="0" shadow="0">
      <root>
        <mxCell id="0" />
        <mxCell id="1" parent="0" />
        <UserObject label="" plantUmlData="{&#xa;  &quot;data&quot;: &quot;@startuml\n&#39; Diagram Title\ntitle Model Architecture and Data Flow\n\n&#39; Style suggestion (optional, makes it look a bit nicer)\nskinparam componentStyle rectangle\nskinparam nodeStyle rectangle\nskinparam rectangle {\n    RoundCorner 20\n}\nskinparam cloud {\n    RoundCorner 20\n}\nskinparam database {\n    RoundCorner 20\n}\n\n\n&#39; 1. Data Input and Preprocessing\ndatabase \&quot;Input DataFrame\\n(final_data)\&quot; as InputDF\nrectangle \&quot;Time Feature Engineering\\n(Add sin/cos day/hour features)\&quot; as FeatureEng\nrectangle \&quot;Select Features (12)\\n&amp; Target (is_valid)\&quot; as FeatureSelect\n\nInputDF --&gt; FeatureEng\nFeatureEng --&gt; FeatureSelect\n\n&#39; 2. Dataset and DataLoader\ncomponent \&quot;LSTMDataset\\n(Create sequences of length 19)\&quot; as Dataset\ncomponent \&quot;DataLoader\\n(Batching [size=32], Padding via collate_fn)\&quot; as Loader\nrectangle \&quot;Target Labels\\n(Batch, 1)\&quot; as Targets\n\nFeatureSelect --&gt; Dataset\nDataset --&gt; Loader : \&quot;(Sequence [19, 12], Target [1]) pairs\&quot;\nLoader --&gt; Targets : \&quot;Batched Targets\&quot;\n\n&#39; 3. The xLSTM Model - using frame for grouping\nframe \&quot;LSTM Model (Input: Batch [Batch, 19, 12])\&quot; {\n    rectangle \&quot;Layer 1 (num_layers=1)\&quot; as LayerBlock {\n        rectangle \&quot;Bidirectional LSTM\\n(hidden=512)\&quot; as BiLSTM\n        note right of BiLSTM : Output Shape:\\n(Batch, 19, 1024)\n\n        rectangle \&quot;Multi-Head Self-Attention\\n(heads=4, dim=1024)\&quot; as Attention\n        note right of Attention : Q, K, V from BiLSTM output\n\n        rectangle \&quot;LayerNorm\&quot; as LN\n\n        &#39; Residual Connection Path\n        rectangle \&quot;Residual Linear\\n(1024 -&gt; 1024)\&quot; as ResLinear\n        () \&quot;+\&quot; as AddNode\n        note left of AddNode : Add &amp; ReLU\\n(norm_output + residual_linear_output)\n\n        BiLSTM --&gt; Attention : \&quot;(Seq dimension transposed for Attention)\&quot;\n        Attention --&gt; LN : \&quot;(Seq dimension transposed back)\&quot;\n        \n        &#39; Explicitly show the split for residual\n        LN --&gt; AddNode : \&quot;Identity Path\&quot;\n        LN --&gt; ResLinear\n        ResLinear --&gt; AddNode : \&quot;Residual Path\&quot;\n    }\n    \n    rectangle \&quot;Mean Aggregation\\n(Average over sequence dim 1)\&quot; as MeanPool\n    note right of MeanPool : Output Shape:\\n(Batch, 1024)\n\n    rectangle \&quot;FC Classifier Head\&quot; as FCHead {\n        rectangle \&quot;Linear (1024 -&gt; 128)\\n+ ReLU\\n+ Dropout (0.3)\&quot; as FC1\n        rectangle \&quot;Linear (128 -&gt; 1)\&quot; as FC2\n        FC1 -&gt; FC2\n    }\n    note right of FCHead : Output Shape:\\n(Batch, 1)\n\n    rectangle \&quot;Sigmoid Activation\&quot; as Sigmoid\n    rectangle \&quot;Output Probabilities\\n(Batch, 1)\&quot; as OutputProbs\n\n\n    &#39; Model Internal Flow\n    AddNode --&gt; MeanPool : \&quot;Output of Layer Block\&quot;\n    MeanPool --&gt; FCHead\n    FCHead --&gt; Sigmoid\n    Sigmoid --&gt; OutputProbs\n}\n\n&#39; Connecting Loader to Model Input\nLoader --&gt; BiLSTM : \&quot;Batched Sequences [Batch, 19, 12]\&quot;\n\n\n&#39; 4. Loss Calculation (Training)\nrectangle \&quot;BCELoss\&quot; as LossCalc\nnote left of LossCalc : Binary Cross-Entropy\n\nOutputProbs --&gt; LossCalc\nTargets --&gt; LossCalc\n\n\n&#39; 5. Evaluation (Testing/Validation)\ncloud \&quot;Evaluation Metrics\\n(Accuracy @ Thr=0.9, ROC AUC)\&quot; as Eval\n\nOutputProbs --&gt; Eval : \&quot;Model Probabilities\&quot;\nTargets --&gt; Eval : \&quot;True Labels\&quot;\n\n\n&#39; Explicit flow for clarity\nLossCalc ..&gt; BiLSTM : \&quot;(Backpropagation during Training)\&quot; #line:dotted;line.color=red\n\n\n@enduml&quot;,&#xa;  &quot;format&quot;: &quot;svg&quot;&#xa;}" id="MqogcxzpGElIdqXNjWoK-2">
          <mxCell style="shape=image;noLabel=1;verticalAlign=top;aspect=fixed;imageAspect=0;image=data:image/svg+xml,PHN2ZyB4bWxucz0iaHR0cDovL3d3dy53My5vcmcvMjAwMC9zdmciIHhtbG5zOnhsaW5rPSJodHRwOi8vd3d3LnczLm9yZy8xOTk5L3hsaW5rIiBjb250ZW50U3R5bGVUeXBlPSJ0ZXh0L2NzcyIgZGF0YS1kaWFncmFtLXR5cGU9IkRFU0NSSVBUSU9OIiBoZWlnaHQ9IjE4NzJweCIgcHJlc2VydmVBc3BlY3RSYXRpbz0ibm9uZSIgc3R5bGU9IndpZHRoOjgxNnB4O2hlaWdodDoxODcycHg7YmFja2dyb3VuZDojRkZGRkZGOyIgdmVyc2lvbj0iMS4xIiB2aWV3Qm94PSIwIDAgODE2IDE4NzIiIHdpZHRoPSI4MTZweCIgem9vbUFuZFBhbj0ibWFnbmlmeSI+PHRpdGxlPk1vZGVsIEFyY2hpdGVjdHVyZSBhbmQgRGF0YSBGbG93PC90aXRsZT48ZGVmcy8+PGc+PHRleHQgZmlsbD0iIzAwMDAwMCIgZm9udC1mYW1pbHk9InNhbnMtc2VyaWYiIGZvbnQtc2l6ZT0iMTQiIGZvbnQtd2VpZ2h0PSJib2xkIiBsZW5ndGhBZGp1c3Q9InNwYWNpbmciIHRleHRMZW5ndGg9IjIyNCIgeD0iMjg5LjEzMzIiIHk9IjIzLjIzNDQiPk1vZGVsIEFyY2hpdGVjdHVyZSBhbmQgRGF0YSBGbG93PC90ZXh0PjwhLS1jbHVzdGVyIExTVE0gTW9kZWwgKElucHV0OiBCYXRjaCBbQmF0Y2gsIDE5LCAxMl0pLS0+PGcgY2xhc3M9ImNsdXN0ZXIiIGRhdGEtZW50aXR5PSJMU1RNIE1vZGVsIChJbnB1dDogQmF0Y2ggW0JhdGNoLCAxOSwgMTJdKSIgZGF0YS1zb3VyY2UtbGluZT0iMzYiIGRhdGEtdWlkPSJlbnQwMDEzIiBpZD0iY2x1c3Rlcl9MU1RNIE1vZGVsIChJbnB1dDogQmF0Y2ggW0JhdGNoLCAxOSwgMTJdKSI+PHJlY3QgZmlsbD0ibm9uZSIgaGVpZ2h0PSIxMTEyIiByeD0iMi41IiByeT0iMi41IiBzdHlsZT0ic3Ryb2tlOiMxODE4MTg7c3Ryb2tlLXdpZHRoOjE7IiB3aWR0aD0iNTgzIiB4PSI2NS43NjY0IiB5PSI2MTkuOTg0NCIvPjxwYXRoIGQ9Ik0zNjIuNzY2NCw2MTkuOTg0NCBMMzYyLjc2NjQsNjI3Ljk2ODggTDM1Mi43NjY0LDYzNy45Njg4IEw2NS43NjY0LDYzNy45Njg4IiBmaWxsPSJub25lIiBzdHlsZT0ic3Ryb2tlOiMxODE4MTg7c3Ryb2tlLXdpZHRoOjE7Ii8+PHRleHQgZmlsbD0iIzAwMDAwMCIgZm9udC1mYW1pbHk9InNhbnMtc2VyaWYiIGZvbnQtc2l6ZT0iMTQiIGZvbnQtd2VpZ2h0PSJib2xkIiBsZW5ndGhBZGp1c3Q9InNwYWNpbmciIHRleHRMZW5ndGg9IjI4NyIgeD0iNjguNzY2NCIgeT0iNjM0LjIxODgiPkxTVE0gTW9kZWwgKElucHV0OiBCYXRjaCBbQmF0Y2gsIDE5LCAxMl0pPC90ZXh0PjwvZz48IS0tY2x1c3RlciBMYXllckJsb2NrLS0+PGcgY2xhc3M9ImNsdXN0ZXIiIGRhdGEtZW50aXR5PSJMYXllckJsb2NrIiBkYXRhLXNvdXJjZS1saW5lPSIzNyIgZGF0YS11aWQ9ImVudDAwMTQiIGlkPSJjbHVzdGVyX0xheWVyQmxvY2siPjxyZWN0IGZpbGw9Im5vbmUiIGhlaWdodD0iNTU4IiByeD0iMTAiIHJ5PSIxMCIgc3R5bGU9InN0cm9rZTojMTgxODE4O3N0cm9rZS13aWR0aDoxOyIgd2lkdGg9IjQ1MiIgeD0iODkuNzY2NCIgeT0iNjYwLjk4NDQiLz48dGV4dCBmaWxsPSIjMDAwMDAwIiBmb250LWZhbWlseT0ic2Fucy1zZXJpZiIgZm9udC1zaXplPSIxNCIgZm9udC13ZWlnaHQ9ImJvbGQiIGxlbmd0aEFkanVzdD0ic3BhY2luZyIgdGV4dExlbmd0aD0iMTU0IiB4PSIyMzguNzY2NCIgeT0iNjc2LjIxODgiPkxheWVyIDEgKG51bV9sYXllcnM9MSk8L3RleHQ+PC9nPjwhLS1jbHVzdGVyIEZDSGVhZC0tPjxnIGNsYXNzPSJjbHVzdGVyIiBkYXRhLWVudGl0eT0iRkNIZWFkIiBkYXRhLXNvdXJjZS1saW5lPSI2MyIgZGF0YS11aWQ9ImVudDAwMzgiIGlkPSJjbHVzdGVyX0ZDSGVhZCI+PHJlY3QgZmlsbD0ibm9uZSIgaGVpZ2h0PSIxMzAiIHJ4PSIxMCIgcnk9IjEwIiBzdHlsZT0ic3Ryb2tlOiMxODE4MTg7c3Ryb2tlLXdpZHRoOjE7IiB3aWR0aD0iNDAyIiB4PSIyMTQuNzY2NCIgeT0iMTM4NC45ODQ0Ii8+PHRleHQgZmlsbD0iIzAwMDAwMCIgZm9udC1mYW1pbHk9InNhbnMtc2VyaWYiIGZvbnQtc2l6ZT0iMTQiIGZvbnQtd2VpZ2h0PSJib2xkIiBsZW5ndGhBZGp1c3Q9InNwYWNpbmciIHRleHRMZW5ndGg9IjEyNiIgeD0iMzUyLjc2NjQiIHk9IjE0MDAuMjE4OCI+RkMgQ2xhc3NpZmllciBIZWFkPC90ZXh0PjwvZz48IS0tZW50aXR5IE1lYW5Qb29sLS0+PGcgY2xhc3M9ImVudGl0eSIgZGF0YS1lbnRpdHk9Ik1lYW5Qb29sIiBkYXRhLXNvdXJjZS1saW5lPSI2MCIgZGF0YS11aWQ9ImVudDAwMzQiIGlkPSJlbnRpdHlfTWVhblBvb2wiPjxyZWN0IGZpbGw9IiNGMUYxRjEiIGhlaWdodD0iNDkuOTY4OCIgcng9IjEwIiByeT0iMTAiIHN0eWxlPSJzdHJva2U6IzE4MTgxODtzdHJva2Utd2lkdGg6MC41OyIgd2lkdGg9IjIyMyIgeD0iMTk1LjI2NjQiIHk9IjEyNzkuOTg0NCIvPjx0ZXh0IGZpbGw9IiMwMDAwMDAiIGZvbnQtZmFtaWx5PSJzYW5zLXNlcmlmIiBmb250LXNpemU9IjE0IiBsZW5ndGhBZGp1c3Q9InNwYWNpbmciIHRleHRMZW5ndGg9IjExMiIgeD0iMjA1LjI2NjQiIHk9IjEzMDMuMjE4OCI+TWVhbiBBZ2dyZWdhdGlvbjwvdGV4dD48dGV4dCBmaWxsPSIjMDAwMDAwIiBmb250LWZhbWlseT0ic2Fucy1zZXJpZiIgZm9udC1zaXplPSIxNCIgbGVuZ3RoQWRqdXN0PSJzcGFjaW5nIiB0ZXh0TGVuZ3RoPSIyMDMiIHg9IjIwNS4yNjY0IiB5PSIxMzE4LjIwMzEiPihBdmVyYWdlIG92ZXIgc2VxdWVuY2UgZGltIDEpPC90ZXh0PjwvZz48ZyBjbGFzcz0iZW50aXR5IiBkYXRhLWVudGl0eT0iR01OMzUiIGRhdGEtc291cmNlLWxpbmU9IjYxIiBkYXRhLXVpZD0iZW50MDAzNiIgaWQ9ImVudGl0eV9HTU4zNSI+PHBhdGggZD0iTTQ1My43NjY0LDEyODUuOTg0NCBMNDUzLjc2NjQsMTMwMC45ODQ0IEw0MTguNDg2NCwxMzA0Ljk4NDQgTDQ1My43NjY0LDEzMDguOTg0NCBMNDUzLjc2NjQsMTMyMy44MTI1IEEwLDAgMCAwIDAgNDUzLjc2NjQsMTMyMy44MTI1IEw1NTkuMjY2NCwxMzIzLjgxMjUgQTAsMCAwIDAgMCA1NTkuMjY2NCwxMzIzLjgxMjUgTDU1OS4yNjY0LDEyOTUuOTg0NCBMNTQ5LjI2NjQsMTI4NS45ODQ0IEw0NTMuNzY2NCwxMjg1Ljk4NDQgQTAsMCAwIDAgMCA0NTMuNzY2NCwxMjg1Ljk4NDQiIGZpbGw9IiNGRUZGREQiIHN0eWxlPSJzdHJva2U6IzE4MTgxODtzdHJva2Utd2lkdGg6MC41OyIvPjxwYXRoIGQ9Ik01NDkuMjY2NCwxMjg1Ljk4NDQgTDU0OS4yNjY0LDEyOTUuOTg0NCBMNTU5LjI2NjQsMTI5NS45ODQ0IEw1NDkuMjY2NCwxMjg1Ljk4NDQiIGZpbGw9IiNGRUZGREQiIHN0eWxlPSJzdHJva2U6IzE4MTgxODtzdHJva2Utd2lkdGg6MC41OyIvPjx0ZXh0IGZpbGw9IiMwMDAwMDAiIGZvbnQtZmFtaWx5PSJzYW5zLXNlcmlmIiBmb250LXNpemU9IjEzIiBsZW5ndGhBZGp1c3Q9InNwYWNpbmciIHRleHRMZW5ndGg9Ijg0LjUiIHg9IjQ1OS43NjY0IiB5PSIxMzAzLjI3MzQiPk91dHB1dCBTaGFwZTo8L3RleHQ+PHRleHQgZmlsbD0iIzAwMDAwMCIgZm9udC1mYW1pbHk9InNhbnMtc2VyaWYiIGZvbnQtc2l6ZT0iMTMiIGxlbmd0aEFkanVzdD0ic3BhY2luZyIgdGV4dExlbmd0aD0iODQuNSIgeD0iNDU5Ljc2NjQiIHk9IjEzMTcuMTg3NSI+KEJhdGNoLCAxMDI0KTwvdGV4dD48L2c+PGcgY2xhc3M9ImVudGl0eSIgZGF0YS1lbnRpdHk9IkdNTjQyIiBkYXRhLXNvdXJjZS1saW5lPSI2OCIgZGF0YS11aWQ9ImVudDAwNDMiIGlkPSJlbnRpdHlfR01ONDIiPjxwYXRoIGQ9Ik04MS43NjY0LDE0MzkuNDg0NCBMODEuNzY2NCwxNDc3LjMxMjUgTDE4Ny4yNjY0LDE0NzcuMzEyNSBMMTg3LjI2NjQsMTQ0OS40ODQ0IEwxNzcuMjY2NCwxNDM5LjQ4NDQgTDgxLjc2NjQsMTQzOS40ODQ0IiBmaWxsPSIjRkVGRkREIiBzdHlsZT0ic3Ryb2tlOiMxODE4MTg7c3Ryb2tlLXdpZHRoOjAuNTsiLz48cGF0aCBkPSJNMTc3LjI2NjQsMTQzOS40ODQ0IEwxNzcuMjY2NCwxNDQ5LjQ4NDQgTDE4Ny4yNjY0LDE0NDkuNDg0NCBMMTc3LjI2NjQsMTQzOS40ODQ0IiBmaWxsPSIjRkVGRkREIiBzdHlsZT0ic3Ryb2tlOiMxODE4MTg7c3Ryb2tlLXdpZHRoOjE7Ii8+PHRleHQgZmlsbD0iIzAwMDAwMCIgZm9udC1mYW1pbHk9InNhbnMtc2VyaWYiIGZvbnQtc2l6ZT0iMTMiIGxlbmd0aEFkanVzdD0ic3BhY2luZyIgdGV4dExlbmd0aD0iODQuNSIgeD0iODcuNzY2NCIgeT0iMTQ1Ni43NzM0Ij5PdXRwdXQgU2hhcGU6PC90ZXh0Pjx0ZXh0IGZpbGw9IiMwMDAwMDAiIGZvbnQtZmFtaWx5PSJzYW5zLXNlcmlmIiBmb250LXNpemU9IjEzIiBsZW5ndGhBZGp1c3Q9InNwYWNpbmciIHRleHRMZW5ndGg9IjY1IiB4PSI4Ny43NjY0IiB5PSIxNDcwLjY4NzUiPihCYXRjaCwgMSk8L3RleHQ+PC9nPjwhLS1lbnRpdHkgU2lnbW9pZC0tPjxnIGNsYXNzPSJlbnRpdHkiIGRhdGEtZW50aXR5PSJTaWdtb2lkIiBkYXRhLXNvdXJjZS1saW5lPSI3MCIgZGF0YS11aWQ9ImVudDAwNDUiIGlkPSJlbnRpdHlfU2lnbW9pZCI+PHJlY3QgZmlsbD0iI0YxRjFGMSIgaGVpZ2h0PSIzNC45ODQ0IiByeD0iMTAiIHJ5PSIxMCIgc3R5bGU9InN0cm9rZTojMTgxODE4O3N0cm9rZS13aWR0aDowLjU7IiB3aWR0aD0iMTQ2IiB4PSIxNjUuNzY2NCIgeT0iMTU2OS45ODQ0Ii8+PHRleHQgZmlsbD0iIzAwMDAwMCIgZm9udC1mYW1pbHk9InNhbnMtc2VyaWYiIGZvbnQtc2l6ZT0iMTQiIGxlbmd0aEFkanVzdD0ic3BhY2luZyIgdGV4dExlbmd0aD0iMTI2IiB4PSIxNzUuNzY2NCIgeT0iMTU5My4yMTg4Ij5TaWdtb2lkIEFjdGl2YXRpb248L3RleHQ+PC9nPjwhLS1lbnRpdHkgT3V0cHV0UHJvYnMtLT48ZyBjbGFzcz0iZW50aXR5IiBkYXRhLWVudGl0eT0iT3V0cHV0UHJvYnMiIGRhdGEtc291cmNlLWxpbmU9IjcxIiBkYXRhLXVpZD0iZW50MDA0NiIgaWQ9ImVudGl0eV9PdXRwdXRQcm9icyI+PHJlY3QgZmlsbD0iI0YxRjFGMSIgaGVpZ2h0PSI0OS45Njg4IiByeD0iMTAiIHJ5PSIxMCIgc3R5bGU9InN0cm9rZTojMTgxODE4O3N0cm9rZS13aWR0aDowLjU7IiB3aWR0aD0iMTYwIiB4PSIxODIuNzY2NCIgeT0iMTY2NS45ODQ0Ii8+PHRleHQgZmlsbD0iIzAwMDAwMCIgZm9udC1mYW1pbHk9InNhbnMtc2VyaWYiIGZvbnQtc2l6ZT0iMTQiIGxlbmd0aEFkanVzdD0ic3BhY2luZyIgdGV4dExlbmd0aD0iMTQwIiB4PSIxOTIuNzY2NCIgeT0iMTY4OS4yMTg4Ij5PdXRwdXQgUHJvYmFiaWxpdGllczwvdGV4dD48dGV4dCBmaWxsPSIjMDAwMDAwIiBmb250LWZhbWlseT0ic2Fucy1zZXJpZiIgZm9udC1zaXplPSIxNCIgbGVuZ3RoQWRqdXN0PSJzcGFjaW5nIiB0ZXh0TGVuZ3RoPSI3MCIgeD0iMTkyLjc2NjQiIHk9IjE3MDQuMjAzMSI+KEJhdGNoLCAxKTwvdGV4dD48L2c+PCEtLWVudGl0eSBCaUxTVE0tLT48ZyBjbGFzcz0iZW50aXR5IiBkYXRhLWVudGl0eT0iQmlMU1RNIiBkYXRhLXNvdXJjZS1saW5lPSIzOCIgZGF0YS11aWQ9ImVudDAwMTUiIGlkPSJlbnRpdHlfQmlMU1RNIj48cmVjdCBmaWxsPSIjRjFGMUYxIiBoZWlnaHQ9IjQ5Ljk2ODgiIHJ4PSIxMCIgcnk9IjEwIiBzdHlsZT0ic3Ryb2tlOiMxODE4MTg7c3Ryb2tlLXdpZHRoOjAuNTsiIHdpZHRoPSIxNDYiIHg9IjEyOS43NjY0IiB5PSI2OTMuOTg0NCIvPjx0ZXh0IGZpbGw9IiMwMDAwMDAiIGZvbnQtZmFtaWx5PSJzYW5zLXNlcmlmIiBmb250LXNpemU9IjE0IiBsZW5ndGhBZGp1c3Q9InNwYWNpbmciIHRleHRMZW5ndGg9IjEyNiIgeD0iMTM5Ljc2NjQiIHk9IjcxNy4yMTg4Ij5CaWRpcmVjdGlvbmFsIExTVE08L3RleHQ+PHRleHQgZmlsbD0iIzAwMDAwMCIgZm9udC1mYW1pbHk9InNhbnMtc2VyaWYiIGZvbnQtc2l6ZT0iMTQiIGxlbmd0aEFkanVzdD0ic3BhY2luZyIgdGV4dExlbmd0aD0iODQiIHg9IjEzOS43NjY0IiB5PSI3MzIuMjAzMSI+KGhpZGRlbj01MTIpPC90ZXh0PjwvZz48ZyBjbGFzcz0iZW50aXR5IiBkYXRhLWVudGl0eT0iR01OMTYiIGRhdGEtc291cmNlLWxpbmU9IjM5IiBkYXRhLXVpZD0iZW50MDAxNyIgaWQ9ImVudGl0eV9HTU4xNiI+PHBhdGggZD0iTTMxMC43NjY0LDY5OS45ODQ0IEwzMTAuNzY2NCw3MTQuOTg0NCBMMjc1LjgyNjQsNzE4Ljk4NDQgTDMxMC43NjY0LDcyMi45ODQ0IEwzMTAuNzY2NCw3MzcuODEyNSBBMCwwIDAgMCAwIDMxMC43NjY0LDczNy44MTI1IEw0NDIuMjY2NCw3MzcuODEyNSBBMCwwIDAgMCAwIDQ0Mi4yNjY0LDczNy44MTI1IEw0NDIuMjY2NCw3MDkuOTg0NCBMNDMyLjI2NjQsNjk5Ljk4NDQgTDMxMC43NjY0LDY5OS45ODQ0IEEwLDAgMCAwIDAgMzEwLjc2NjQsNjk5Ljk4NDQiIGZpbGw9IiNGRUZGREQiIHN0eWxlPSJzdHJva2U6IzE4MTgxODtzdHJva2Utd2lkdGg6MC41OyIvPjxwYXRoIGQ9Ik00MzIuMjY2NCw2OTkuOTg0NCBMNDMyLjI2NjQsNzA5Ljk4NDQgTDQ0Mi4yNjY0LDcwOS45ODQ0IEw0MzIuMjY2NCw2OTkuOTg0NCIgZmlsbD0iI0ZFRkZERCIgc3R5bGU9InN0cm9rZTojMTgxODE4O3N0cm9rZS13aWR0aDowLjU7Ii8+PHRleHQgZmlsbD0iIzAwMDAwMCIgZm9udC1mYW1pbHk9InNhbnMtc2VyaWYiIGZvbnQtc2l6ZT0iMTMiIGxlbmd0aEFkanVzdD0ic3BhY2luZyIgdGV4dExlbmd0aD0iODQuNSIgeD0iMzE2Ljc2NjQiIHk9IjcxNy4yNzM0Ij5PdXRwdXQgU2hhcGU6PC90ZXh0Pjx0ZXh0IGZpbGw9IiMwMDAwMDAiIGZvbnQtZmFtaWx5PSJzYW5zLXNlcmlmIiBmb250LXNpemU9IjEzIiBsZW5ndGhBZGp1c3Q9InNwYWNpbmciIHRleHRMZW5ndGg9IjExMC41IiB4PSIzMTYuNzY2NCIgeT0iNzMxLjE4NzUiPihCYXRjaCwgMTksIDEwMjQpPC90ZXh0PjwvZz48IS0tZW50aXR5IEF0dGVudGlvbi0tPjxnIGNsYXNzPSJlbnRpdHkiIGRhdGEtZW50aXR5PSJBdHRlbnRpb24iIGRhdGEtc291cmNlLWxpbmU9IjQxIiBkYXRhLXVpZD0iZW50MDAxOSIgaWQ9ImVudGl0eV9BdHRlbnRpb24iPjxyZWN0IGZpbGw9IiNGMUYxRjEiIGhlaWdodD0iNDkuOTY4OCIgcng9IjEwIiByeT0iMTAiIHN0eWxlPSJzdHJva2U6IzE4MTgxODtzdHJva2Utd2lkdGg6MC41OyIgd2lkdGg9IjE5NSIgeD0iMTA1LjI2NjQiIHk9IjgxOC45ODQ0Ii8+PHRleHQgZmlsbD0iIzAwMDAwMCIgZm9udC1mYW1pbHk9InNhbnMtc2VyaWYiIGZvbnQtc2l6ZT0iMTQiIGxlbmd0aEFkanVzdD0ic3BhY2luZyIgdGV4dExlbmd0aD0iMTc1IiB4PSIxMTUuMjY2NCIgeT0iODQyLjIxODgiPk11bHRpLUhlYWQgU2VsZi1BdHRlbnRpb248L3RleHQ+PHRleHQgZmlsbD0iIzAwMDAwMCIgZm9udC1mYW1pbHk9InNhbnMtc2VyaWYiIGZvbnQtc2l6ZT0iMTQiIGxlbmd0aEFkanVzdD0ic3BhY2luZyIgdGV4dExlbmd0aD0iMTMzIiB4PSIxMTUuMjY2NCIgeT0iODU3LjIwMzEiPihoZWFkcz00LCBkaW09MTAyNCk8L3RleHQ+PC9nPjxnIGNsYXNzPSJlbnRpdHkiIGRhdGEtZW50aXR5PSJHTU4yMCIgZGF0YS1zb3VyY2UtbGluZT0iNDIiIGRhdGEtdWlkPSJlbnQwMDIxIiBpZD0iZW50aXR5X0dNTjIwIj48cGF0aCBkPSJNMzM1Ljc2NjQsODMxLjk4NDQgTDMzNS43NjY0LDgzOS45ODQ0IEwzMDAuMjg2NCw4NDMuOTg0NCBMMzM1Ljc2NjQsODQ3Ljk4NDQgTDMzNS43NjY0LDg1NS44OTg0IEEwLDAgMCAwIDAgMzM1Ljc2NjQsODU1Ljg5ODQgTDUyNS43NjY0LDg1NS44OTg0IEEwLDAgMCAwIDAgNTI1Ljc2NjQsODU1Ljg5ODQgTDUyNS43NjY0LDg0MS45ODQ0IEw1MTUuNzY2NCw4MzEuOTg0NCBMMzM1Ljc2NjQsODMxLjk4NDQgQTAsMCAwIDAgMCAzMzUuNzY2NCw4MzEuOTg0NCIgZmlsbD0iI0ZFRkZERCIgc3R5bGU9InN0cm9rZTojMTgxODE4O3N0cm9rZS13aWR0aDowLjU7Ii8+PHBhdGggZD0iTTUxNS43NjY0LDgzMS45ODQ0IEw1MTUuNzY2NCw4NDEuOTg0NCBMNTI1Ljc2NjQsODQxLjk4NDQgTDUxNS43NjY0LDgzMS45ODQ0IiBmaWxsPSIjRkVGRkREIiBzdHlsZT0ic3Ryb2tlOiMxODE4MTg7c3Ryb2tlLXdpZHRoOjAuNTsiLz48dGV4dCBmaWxsPSIjMDAwMDAwIiBmb250LWZhbWlseT0ic2Fucy1zZXJpZiIgZm9udC1zaXplPSIxMyIgbGVuZ3RoQWRqdXN0PSJzcGFjaW5nIiB0ZXh0TGVuZ3RoPSIxNjkiIHg9IjM0MS43NjY0IiB5PSI4NDkuMjczNCI+USwgSywgViBmcm9tIEJpTFNUTSBvdXRwdXQ8L3RleHQ+PC9nPjwhLS1lbnRpdHkgTE4tLT48ZyBjbGFzcz0iZW50aXR5IiBkYXRhLWVudGl0eT0iTE4iIGRhdGEtc291cmNlLWxpbmU9IjQ0IiBkYXRhLXVpZD0iZW50MDAyMyIgaWQ9ImVudGl0eV9MTiI+PHJlY3QgZmlsbD0iI0YxRjFGMSIgaGVpZ2h0PSIzNC45ODQ0IiByeD0iMTAiIHJ5PSIxMCIgc3R5bGU9InN0cm9rZTojMTgxODE4O3N0cm9rZS13aWR0aDowLjU7IiB3aWR0aD0iODMiIHg9IjE5Mi4yNjY0IiB5PSI5NDMuOTg0NCIvPjx0ZXh0IGZpbGw9IiMwMDAwMDAiIGZvbnQtZmFtaWx5PSJzYW5zLXNlcmlmIiBmb250LXNpemU9IjE0IiBsZW5ndGhBZGp1c3Q9InNwYWNpbmciIHRleHRMZW5ndGg9IjYzIiB4PSIyMDIuMjY2NCIgeT0iOTY3LjIxODgiPkxheWVyTm9ybTwvdGV4dD48L2c+PCEtLWVudGl0eSBSZXNMaW5lYXItLT48ZyBjbGFzcz0iZW50aXR5IiBkYXRhLWVudGl0eT0iUmVzTGluZWFyIiBkYXRhLXNvdXJjZS1saW5lPSI0NyIgZGF0YS11aWQ9ImVudDAwMjQiIGlkPSJlbnRpdHlfUmVzTGluZWFyIj48cmVjdCBmaWxsPSIjRjFGMUYxIiBoZWlnaHQ9IjQ5Ljk2ODgiIHJ4PSIxMCIgcnk9IjEwIiBzdHlsZT0ic3Ryb2tlOiMxODE4MTg7c3Ryb2tlLXdpZHRoOjAuNTsiIHdpZHRoPSIxMjUiIHg9IjM1NS4yNjY0IiB5PSIxMDM5Ljk4NDQiLz48dGV4dCBmaWxsPSIjMDAwMDAwIiBmb250LWZhbWlseT0ic2Fucy1zZXJpZiIgZm9udC1zaXplPSIxNCIgbGVuZ3RoQWRqdXN0PSJzcGFjaW5nIiB0ZXh0TGVuZ3RoPSIxMDUiIHg9IjM2NS4yNjY0IiB5PSIxMDYzLjIxODgiPlJlc2lkdWFsIExpbmVhcjwvdGV4dD48dGV4dCBmaWxsPSIjMDAwMDAwIiBmb250LWZhbWlseT0ic2Fucy1zZXJpZiIgZm9udC1zaXplPSIxNCIgbGVuZ3RoQWRqdXN0PSJzcGFjaW5nIiB0ZXh0TGVuZ3RoPSI5OCIgeD0iMzY1LjI2NjQiIHk9IjEwNzguMjAzMSI+KDEwMjQgLSZndDsgMTAyNCk8L3RleHQ+PC9nPjwhLS1lbnRpdHkgQWRkTm9kZS0tPjxnIGNsYXNzPSJlbnRpdHkiIGRhdGEtZW50aXR5PSJBZGROb2RlIiBkYXRhLXNvdXJjZS1saW5lPSI0OCIgZGF0YS11aWQ9ImVudDAwMjUiIGlkPSJlbnRpdHlfQWRkTm9kZSI+PGVsbGlwc2UgY3g9IjQxNy43NjY0IiBjeT0iMTE4My45ODQ0IiBmaWxsPSIjRjFGMUYxIiByeD0iOCIgcnk9IjgiIHN0eWxlPSJzdHJva2U6IzE4MTgxODtzdHJva2Utd2lkdGg6MC41OyIvPjx0ZXh0IGZpbGw9IiMwMDAwMDAiIGZvbnQtZmFtaWx5PSJzYW5zLXNlcmlmIiBmb250LXNpemU9IjE0IiBsZW5ndGhBZGp1c3Q9InNwYWNpbmciIHRleHRMZW5ndGg9IjciIHg9IjQxNC4yNjY0IiB5PSIxMjE0LjIxODgiPis8L3RleHQ+PC9nPjxnIGNsYXNzPSJlbnRpdHkiIGRhdGEtZW50aXR5PSJHTU4yNiIgZGF0YS1zb3VyY2UtbGluZT0iNDkiIGRhdGEtdWlkPSJlbnQwMDI3IiBpZD0iZW50aXR5X0dNTjI2Ij48cGF0aCBkPSJNMTA1Ljc2NjQsMTE2NC45ODQ0IEwxMDUuNzY2NCwxMjAyLjgxMjUgQTAsMCAwIDAgMCAxMDUuNzY2NCwxMjAyLjgxMjUgTDM3My43NjY0LDEyMDIuODEyNSBBMCwwIDAgMCAwIDM3My43NjY0LDEyMDIuODEyNSBMMzczLjc2NjQsMTE4Ny45ODQ0IEw0MDguNTI2NCwxMTgzLjk4NDQgTDM3My43NjY0LDExNzkuOTg0NCBMMzczLjc2NjQsMTE3NC45ODQ0IEwzNjMuNzY2NCwxMTY0Ljk4NDQgTDEwNS43NjY0LDExNjQuOTg0NCBBMCwwIDAgMCAwIDEwNS43NjY0LDExNjQuOTg0NCIgZmlsbD0iI0ZFRkZERCIgc3R5bGU9InN0cm9rZTojMTgxODE4O3N0cm9rZS13aWR0aDowLjU7Ii8+PHBhdGggZD0iTTM2My43NjY0LDExNjQuOTg0NCBMMzYzLjc2NjQsMTE3NC45ODQ0IEwzNzMuNzY2NCwxMTc0Ljk4NDQgTDM2My43NjY0LDExNjQuOTg0NCIgZmlsbD0iI0ZFRkZERCIgc3R5bGU9InN0cm9rZTojMTgxODE4O3N0cm9rZS13aWR0aDowLjU7Ii8+PHRleHQgZmlsbD0iIzAwMDAwMCIgZm9udC1mYW1pbHk9InNhbnMtc2VyaWYiIGZvbnQtc2l6ZT0iMTMiIGxlbmd0aEFkanVzdD0ic3BhY2luZyIgdGV4dExlbmd0aD0iNjUiIHg9IjExMS43NjY0IiB5PSIxMTgyLjI3MzQiPkFkZCAmYW1wOyBSZUxVPC90ZXh0Pjx0ZXh0IGZpbGw9IiMwMDAwMDAiIGZvbnQtZmFtaWx5PSJzYW5zLXNlcmlmIiBmb250LXNpemU9IjEzIiBsZW5ndGhBZGp1c3Q9InNwYWNpbmciIHRleHRMZW5ndGg9IjI0NyIgeD0iMTExLjc2NjQiIHk9IjExOTYuMTg3NSI+KG5vcm1fb3V0cHV0ICsgcmVzaWR1YWxfbGluZWFyX291dHB1dCk8L3RleHQ+PC9nPjwhLS1lbnRpdHkgRkMxLS0+PGcgY2xhc3M9ImVudGl0eSIgZGF0YS1lbnRpdHk9IkZDMSIgZGF0YS1zb3VyY2UtbGluZT0iNjQiIGRhdGEtdWlkPSJlbnQwMDM5IiBpZD0iZW50aXR5X0ZDMSI+PHJlY3QgZmlsbD0iI0YxRjFGMSIgaGVpZ2h0PSI2NC45NTMxIiByeD0iMTAiIHJ5PSIxMCIgc3R5bGU9InN0cm9rZTojMTgxODE4O3N0cm9rZS13aWR0aDowLjU7IiB3aWR0aD0iMTYwIiB4PSIyNTcuNzY2NCIgeT0iMTQyNS45ODQ0Ii8+PHRleHQgZmlsbD0iIzAwMDAwMCIgZm9udC1mYW1pbHk9InNhbnMtc2VyaWYiIGZvbnQtc2l6ZT0iMTQiIGxlbmd0aEFkanVzdD0ic3BhY2luZyIgdGV4dExlbmd0aD0iMTQwIiB4PSIyNjcuNzY2NCIgeT0iMTQ0OS4yMTg4Ij5MaW5lYXIgKDEwMjQgLSZndDsgMTI4KTwvdGV4dD48dGV4dCBmaWxsPSIjMDAwMDAwIiBmb250LWZhbWlseT0ic2Fucy1zZXJpZiIgZm9udC1zaXplPSIxNCIgbGVuZ3RoQWRqdXN0PSJzcGFjaW5nIiB0ZXh0TGVuZ3RoPSI0MiIgeD0iMjY3Ljc2NjQiIHk9IjE0NjQuMjAzMSI+KyBSZUxVPC90ZXh0Pjx0ZXh0IGZpbGw9IiMwMDAwMDAiIGZvbnQtZmFtaWx5PSJzYW5zLXNlcmlmIiBmb250LXNpemU9IjE0IiBsZW5ndGhBZGp1c3Q9InNwYWNpbmciIHRleHRMZW5ndGg9IjEwNSIgeD0iMjY3Ljc2NjQiIHk9IjE0NzkuMTg3NSI+KyBEcm9wb3V0ICgwLjMpPC90ZXh0PjwvZz48IS0tZW50aXR5IEZDMi0tPjxnIGNsYXNzPSJlbnRpdHkiIGRhdGEtZW50aXR5PSJGQzIiIGRhdGEtc291cmNlLWxpbmU9IjY1IiBkYXRhLXVpZD0iZW50MDA0MCIgaWQ9ImVudGl0eV9GQzIiPjxyZWN0IGZpbGw9IiNGMUYxRjEiIGhlaWdodD0iMzQuOTg0NCIgcng9IjEwIiByeT0iMTAiIHN0eWxlPSJzdHJva2U6IzE4MTgxODtzdHJva2Utd2lkdGg6MC41OyIgd2lkdGg9IjEzOSIgeD0iNDUzLjI2NjQiIHk9IjE0NDAuOTg0NCIvPjx0ZXh0IGZpbGw9IiMwMDAwMDAiIGZvbnQtZmFtaWx5PSJzYW5zLXNlcmlmIiBmb250LXNpemU9IjE0IiBsZW5ndGhBZGp1c3Q9InNwYWNpbmciIHRleHRMZW5ndGg9IjExOSIgeD0iNDYzLjI2NjQiIHk9IjE0NjQuMjE4OCI+TGluZWFyICgxMjggLSZndDsgMSk8L3RleHQ+PC9nPjwhLS1lbnRpdHkgSW5wdXRERi0tPjxnIGNsYXNzPSJlbnRpdHkiIGRhdGEtZW50aXR5PSJJbnB1dERGIiBkYXRhLXNvdXJjZS1saW5lPSIxOSIgZGF0YS11aWQ9ImVudDAwMDIiIGlkPSJlbnRpdHlfSW5wdXRERiI+PHBhdGggZD0iTTM5My4yNjY0LDUxLjk4NDQgQzM5My4yNjY0LDQxLjk4NDQgNDU1Ljc2NjQsNDEuOTg0NCA0NTUuNzY2NCw0MS45ODQ0IEM0NTUuNzY2NCw0MS45ODQ0IDUxOC4yNjY0LDQxLjk4NDQgNTE4LjI2NjQsNTEuOTg0NCBMNTE4LjI2NjQsOTAuOTUzMSBDNTE4LjI2NjQsMTAwLjk1MzEgNDU1Ljc2NjQsMTAwLjk1MzEgNDU1Ljc2NjQsMTAwLjk1MzEgQzQ1NS43NjY0LDEwMC45NTMxIDM5My4yNjY0LDEwMC45NTMxIDM5My4yNjY0LDkwLjk1MzEgTDM5My4yNjY0LDUxLjk4NDQiIGZpbGw9IiNGMUYxRjEiIHN0eWxlPSJzdHJva2U6IzE4MTgxODtzdHJva2Utd2lkdGg6MC41OyIvPjxwYXRoIGQ9Ik0zOTMuMjY2NCw1MS45ODQ0IEMzOTMuMjY2NCw2MS45ODQ0IDQ1NS43NjY0LDYxLjk4NDQgNDU1Ljc2NjQsNjEuOTg0NCBDNDU1Ljc2NjQsNjEuOTg0NCA1MTguMjY2NCw2MS45ODQ0IDUxOC4yNjY0LDUxLjk4NDQiIGZpbGw9Im5vbmUiIHN0eWxlPSJzdHJva2U6IzE4MTgxODtzdHJva2Utd2lkdGg6MC41OyIvPjx0ZXh0IGZpbGw9IiMwMDAwMDAiIGZvbnQtZmFtaWx5PSJzYW5zLXNlcmlmIiBmb250LXNpemU9IjE0IiBsZW5ndGhBZGp1c3Q9InNwYWNpbmciIHRleHRMZW5ndGg9IjEwNSIgeD0iNDAzLjI2NjQiIHk9Ijc5LjIxODgiPklucHV0IERhdGFGcmFtZTwvdGV4dD48dGV4dCBmaWxsPSIjMDAwMDAwIiBmb250LWZhbWlseT0ic2Fucy1zZXJpZiIgZm9udC1zaXplPSIxNCIgbGVuZ3RoQWRqdXN0PSJzcGFjaW5nIiB0ZXh0TGVuZ3RoPSI4NCIgeD0iNDAzLjI2NjQiIHk9Ijk0LjIwMzEiPihmaW5hbF9kYXRhKTwvdGV4dD48L2c+PCEtLWVudGl0eSBGZWF0dXJlRW5nLS0+PGcgY2xhc3M9ImVudGl0eSIgZGF0YS1lbnRpdHk9IkZlYXR1cmVFbmciIGRhdGEtc291cmNlLWxpbmU9IjIwIiBkYXRhLXVpZD0iZW50MDAwMyIgaWQ9ImVudGl0eV9GZWF0dXJlRW5nIj48cmVjdCBmaWxsPSIjRjFGMUYxIiBoZWlnaHQ9IjQ5Ljk2ODgiIHJ4PSIxMCIgcnk9IjEwIiBzdHlsZT0ic3Ryb2tlOiMxODE4MTg7c3Ryb2tlLXdpZHRoOjAuNTsiIHdpZHRoPSIyMzciIHg9IjMzNy4yNjY0IiB5PSIxNjEuOTg0NCIvPjx0ZXh0IGZpbGw9IiMwMDAwMDAiIGZvbnQtZmFtaWx5PSJzYW5zLXNlcmlmIiBmb250LXNpemU9IjE0IiBsZW5ndGhBZGp1c3Q9InNwYWNpbmciIHRleHRMZW5ndGg9IjE2OCIgeD0iMzQ3LjI2NjQiIHk9IjE4NS4yMTg4Ij5UaW1lIEZlYXR1cmUgRW5naW5lZXJpbmc8L3RleHQ+PHRleHQgZmlsbD0iIzAwMDAwMCIgZm9udC1mYW1pbHk9InNhbnMtc2VyaWYiIGZvbnQtc2l6ZT0iMTQiIGxlbmd0aEFkanVzdD0ic3BhY2luZyIgdGV4dExlbmd0aD0iMjE3IiB4PSIzNDcuMjY2NCIgeT0iMjAwLjIwMzEiPihBZGQgc2luL2NvcyBkYXkvaG91ciBmZWF0dXJlcyk8L3RleHQ+PC9nPjwhLS1lbnRpdHkgRmVhdHVyZVNlbGVjdC0tPjxnIGNsYXNzPSJlbnRpdHkiIGRhdGEtZW50aXR5PSJGZWF0dXJlU2VsZWN0IiBkYXRhLXNvdXJjZS1saW5lPSIyMSIgZGF0YS11aWQ9ImVudDAwMDQiIGlkPSJlbnRpdHlfRmVhdHVyZVNlbGVjdCI+PHJlY3QgZmlsbD0iI0YxRjFGMSIgaGVpZ2h0PSI0OS45Njg4IiByeD0iMTAiIHJ5PSIxMCIgc3R5bGU9InN0cm9rZTojMTgxODE4O3N0cm9rZS13aWR0aDowLjU7IiB3aWR0aD0iMTYwIiB4PSIzNzUuNzY2NCIgeT0iMjcyLjk4NDQiLz48dGV4dCBmaWxsPSIjMDAwMDAwIiBmb250LWZhbWlseT0ic2Fucy1zZXJpZiIgZm9udC1zaXplPSIxNCIgbGVuZ3RoQWRqdXN0PSJzcGFjaW5nIiB0ZXh0TGVuZ3RoPSIxNDAiIHg9IjM4NS43NjY0IiB5PSIyOTYuMjE4OCI+U2VsZWN0IEZlYXR1cmVzICgxMik8L3RleHQ+PHRleHQgZmlsbD0iIzAwMDAwMCIgZm9udC1mYW1pbHk9InNhbnMtc2VyaWYiIGZvbnQtc2l6ZT0iMTQiIGxlbmd0aEFkanVzdD0ic3BhY2luZyIgdGV4dExlbmd0aD0iMTMzIiB4PSIzODUuNzY2NCIgeT0iMzExLjIwMzEiPiZhbXA7IFRhcmdldCAoaXNfdmFsaWQpPC90ZXh0PjwvZz48IS0tZW50aXR5IERhdGFzZXQtLT48ZyBjbGFzcz0iZW50aXR5IiBkYXRhLWVudGl0eT0iRGF0YXNldCIgZGF0YS1zb3VyY2UtbGluZT0iMjciIGRhdGEtdWlkPSJlbnQwMDA3IiBpZD0iZW50aXR5X0RhdGFzZXQiPjxyZWN0IGZpbGw9IiNGMUYxRjEiIGhlaWdodD0iNDkuOTY4OCIgcng9IjIuNSIgcnk9IjIuNSIgc3R5bGU9InN0cm9rZTojMTgxODE4O3N0cm9rZS13aWR0aDowLjU7IiB3aWR0aD0iMjM3IiB4PSIzMzcuMjY2NCIgeT0iMzgzLjk4NDQiLz48dGV4dCBmaWxsPSIjMDAwMDAwIiBmb250LWZhbWlseT0ic2Fucy1zZXJpZiIgZm9udC1zaXplPSIxNCIgbGVuZ3RoQWRqdXN0PSJzcGFjaW5nIiB0ZXh0TGVuZ3RoPSI3NyIgeD0iMzQ3LjI2NjQiIHk9IjQwNy4yMTg4Ij5MU1RNRGF0YXNldDwvdGV4dD48dGV4dCBmaWxsPSIjMDAwMDAwIiBmb250LWZhbWlseT0ic2Fucy1zZXJpZiIgZm9udC1zaXplPSIxNCIgbGVuZ3RoQWRqdXN0PSJzcGFjaW5nIiB0ZXh0TGVuZ3RoPSIyMTciIHg9IjM0Ny4yNjY0IiB5PSI0MjIuMjAzMSI+KENyZWF0ZSBzZXF1ZW5jZXMgb2YgbGVuZ3RoIDE5KTwvdGV4dD48L2c+PCEtLWVudGl0eSBMb2FkZXItLT48ZyBjbGFzcz0iZW50aXR5IiBkYXRhLWVudGl0eT0iTG9hZGVyIiBkYXRhLXNvdXJjZS1saW5lPSIyOCIgZGF0YS11aWQ9ImVudDAwMDgiIGlkPSJlbnRpdHlfTG9hZGVyIj48cmVjdCBmaWxsPSIjRjFGMUYxIiBoZWlnaHQ9IjQ5Ljk2ODgiIHJ4PSIyLjUiIHJ5PSIyLjUiIHN0eWxlPSJzdHJva2U6IzE4MTgxODtzdHJva2Utd2lkdGg6MC41OyIgd2lkdGg9IjMyOCIgeD0iMjkxLjc2NjQiIHk9IjUwOC45ODQ0Ii8+PHRleHQgZmlsbD0iIzAwMDAwMCIgZm9udC1mYW1pbHk9InNhbnMtc2VyaWYiIGZvbnQtc2l6ZT0iMTQiIGxlbmd0aEFkanVzdD0ic3BhY2luZyIgdGV4dExlbmd0aD0iNzAiIHg9IjMwMS43NjY0IiB5PSI1MzIuMjE4OCI+RGF0YUxvYWRlcjwvdGV4dD48dGV4dCBmaWxsPSIjMDAwMDAwIiBmb250LWZhbWlseT0ic2Fucy1zZXJpZiIgZm9udC1zaXplPSIxNCIgbGVuZ3RoQWRqdXN0PSJzcGFjaW5nIiB0ZXh0TGVuZ3RoPSIzMDgiIHg9IjMwMS43NjY0IiB5PSI1NDcuMjAzMSI+KEJhdGNoaW5nIFtzaXplPTMyXSwgUGFkZGluZyB2aWEgY29sbGF0ZV9mbik8L3RleHQ+PC9nPjwhLS1lbnRpdHkgVGFyZ2V0cy0tPjxnIGNsYXNzPSJlbnRpdHkiIGRhdGEtZW50aXR5PSJUYXJnZXRzIiBkYXRhLXNvdXJjZS1saW5lPSIyOSIgZGF0YS11aWQ9ImVudDAwMDkiIGlkPSJlbnRpdHlfVGFyZ2V0cyI+PHJlY3QgZmlsbD0iI0YxRjFGMSIgaGVpZ2h0PSI0OS45Njg4IiByeD0iMTAiIHJ5PSIxMCIgc3R5bGU9InN0cm9rZTojMTgxODE4O3N0cm9rZS13aWR0aDowLjU7IiB3aWR0aD0iMTExIiB4PSI2NjQuMjY2NCIgeT0iMTY2NS45ODQ0Ii8+PHRleHQgZmlsbD0iIzAwMDAwMCIgZm9udC1mYW1pbHk9InNhbnMtc2VyaWYiIGZvbnQtc2l6ZT0iMTQiIGxlbmd0aEFkanVzdD0ic3BhY2luZyIgdGV4dExlbmd0aD0iOTEiIHg9IjY3NC4yNjY0IiB5PSIxNjg5LjIxODgiPlRhcmdldCBMYWJlbHM8L3RleHQ+PHRleHQgZmlsbD0iIzAwMDAwMCIgZm9udC1mYW1pbHk9InNhbnMtc2VyaWYiIGZvbnQtc2l6ZT0iMTQiIGxlbmd0aEFkanVzdD0ic3BhY2luZyIgdGV4dExlbmd0aD0iNzAiIHg9IjY3NC4yNjY0IiB5PSIxNzA0LjIwMzEiPihCYXRjaCwgMSk8L3RleHQ+PC9nPjwhLS1lbnRpdHkgTG9zc0NhbGMtLT48ZyBjbGFzcz0iZW50aXR5IiBkYXRhLWVudGl0eT0iTG9zc0NhbGMiIGRhdGEtc291cmNlLWxpbmU9Ijg2IiBkYXRhLXVpZD0iZW50MDA1MiIgaWQ9ImVudGl0eV9Mb3NzQ2FsYyI+PHJlY3QgZmlsbD0iI0YxRjFGMSIgaGVpZ2h0PSIzNC45ODQ0IiByeD0iMTAiIHJ5PSIxMCIgc3R5bGU9InN0cm9rZTojMTgxODE4O3N0cm9rZS13aWR0aDowLjU7IiB3aWR0aD0iNjkiIHg9IjIyOC4yNjY0IiB5PSIxODA1LjQ4NDQiLz48dGV4dCBmaWxsPSIjMDAwMDAwIiBmb250LWZhbWlseT0ic2Fucy1zZXJpZiIgZm9udC1zaXplPSIxNCIgbGVuZ3RoQWRqdXN0PSJzcGFjaW5nIiB0ZXh0TGVuZ3RoPSI0OSIgeD0iMjM4LjI2NjQiIHk9IjE4MjguNzE4OCI+QkNFTG9zczwvdGV4dD48L2c+PGcgY2xhc3M9ImVudGl0eSIgZGF0YS1lbnRpdHk9IkdNTjUzIiBkYXRhLXNvdXJjZS1saW5lPSI4NyIgZGF0YS11aWQ9ImVudDAwNTQiIGlkPSJlbnRpdHlfR01ONTMiPjxwYXRoIGQ9Ik00Mi4yNjY0LDE4MTAuOTg0NCBMNDIuMjY2NCwxODM0Ljg5ODQgQTAsMCAwIDAgMCA0Mi4yNjY0LDE4MzQuODk4NCBMMTkzLjI2NjQsMTgzNC44OTg0IEEwLDAgMCAwIDAgMTkzLjI2NjQsMTgzNC44OTg0IEwxOTMuMjY2NCwxODI4Ljk4NDQgTDIyOC4wNjY0LDE4MjIuOTg0NCBMMTkzLjI2NjQsMTgyMC45ODQ0IEwxOTMuMjY2NCwxODIwLjk4NDQgTDE4My4yNjY0LDE4MTAuOTg0NCBMNDIuMjY2NCwxODEwLjk4NDQgQTAsMCAwIDAgMCA0Mi4yNjY0LDE4MTAuOTg0NCIgZmlsbD0iI0ZFRkZERCIgc3R5bGU9InN0cm9rZTojMTgxODE4O3N0cm9rZS13aWR0aDowLjU7Ii8+PHBhdGggZD0iTTE4My4yNjY0LDE4MTAuOTg0NCBMMTgzLjI2NjQsMTgyMC45ODQ0IEwxOTMuMjY2NCwxODIwLjk4NDQgTDE4My4yNjY0LDE4MTAuOTg0NCIgZmlsbD0iI0ZFRkZERCIgc3R5bGU9InN0cm9rZTojMTgxODE4O3N0cm9rZS13aWR0aDowLjU7Ii8+PHRleHQgZmlsbD0iIzAwMDAwMCIgZm9udC1mYW1pbHk9InNhbnMtc2VyaWYiIGZvbnQtc2l6ZT0iMTMiIGxlbmd0aEFkanVzdD0ic3BhY2luZyIgdGV4dExlbmd0aD0iMTMwIiB4PSI0OC4yNjY0IiB5PSIxODI4LjI3MzQiPkJpbmFyeSBDcm9zcy1FbnRyb3B5PC90ZXh0PjwvZz48IS0tZW50aXR5IEV2YWwtLT48ZyBjbGFzcz0iZW50aXR5IiBkYXRhLWVudGl0eT0iRXZhbCIgZGF0YS1zb3VyY2UtbGluZT0iOTQiIGRhdGEtdWlkPSJlbnQwMDU4IiBpZD0iZW50aXR5X0V2YWwiPjxwYXRoIGQ9Ik00NzUuOTA4MywxODAzLjQ4NDEgQzQ3OS44MTQ0LDE3OTcuMDAyMiA0ODYuNDcxOCwxNzk2LjEzMTEgNDkxLjIzMDgsMTgwMi40NjQ0IEM0OTUuMDg0LDE3OTMuOTIzMiA1MDIuNTMyNCwxNzk0LjE0IDUwOC4xMjg0LDE4MDAuNDg2MyBDNTEyLjc4NSwxNzkzLjI5NjggNTE2Ljg5LDE3OTUuMTM1MSA1MjEuMzY4NCwxODAwLjY3MTcgQzUyNi40MDA0LDE3OTIuOTc2IDUzMy44NzU5LDE3OTAuOTE3MyA1MzkuMDAxMywxODAwLjU3NjcgQzU0My40ODksMTc5NC44OTI2IDU0Ny44MjY2LDE3OTIuODYzOCA1NTIuNzQzMSwxODAwLjEyMTUgQzU1Ny45NDA0LDE3OTEuNzA4IDU2My4wNjU3LDE3OTEuMjc0MiA1NjkuMjI1OSwxNzk5LjE0NzEgQzU3My40MDcyLDE3OTEuNTY2NiA1ODAuMjAxNSwxNzkxLjU1NjQgNTgzLjg0MDYsMTc5OS42NTI1IEM1ODkuNTA4NSwxNzkyLjA5NjQgNTk0LjYzNzYsMTc5NC4wMjY5IDU5OC43ODI2LDE4MDEuMTk3NiBDNjAyLjYzODQsMTc5Mi41NjcgNjA4Ljk2MDMsMTc5MS4wMjE4IDYxNC45MTA0LDE3OTkuMTg2NSBDNjE5LjYxODUsMTc5My4zMzU5IDYyNS44OTY2LDE3OTEuOTE1MiA2MjkuNjM3LDE4MDAuMTk0OSBDNjM1LjMxNTksMTc5MS42MTEzIDY0MC4yMzUyLDE3OTIuODIxOCA2NDUuNzkyNCwxODAwLjMxNzIgQzY1MC4wMzA1LDE3OTMuNzkxMiA2NTYuNDEwOSwxNzkzLjA0MDIgNjYwLjQ0MjMsMTgwMC41MzMxIEM2NjYuNzI1NywxNzkxLjg2NDIgNjcyLjgyMDYsMTc5My40MDE5IDY3OC41OTI3LDE4MDEuMTAwMSBDNjg0LjI3NjcsMTc5NS4zNSA2ODkuMTc1NCwxNzk3LjEzOTcgNjkyLjU3NDQsMTgwMy42OTYgQzcwMy4xMDc5LDE4MDguNDI5OCA3MDUuMjM2OSwxODE4LjI3NTIgNjk1LjU1NiwxODI1Ljc0MjggQzcwMi41NTQzLDE4MzIuNDU5OCA3MDEuODE5OCwxODQyLjE5ODYgNjkxLjYzNzYsMTg0NS41MTAxIEM2ODguMzA1MSwxODU0LjQ2NTUgNjgxLjY3NDQsMTg1NC44MTEyIDY3Ni4wOTIzLDE4NDcuNjg0NiBDNjcyLjA3MiwxODU1LjMyMDYgNjY2Ljc0NjEsMTg1Ny4wNDk4IDY2MS4wMzgsMTg0OS4zNDAzIEM2NTcuNzk0OSwxODU4LjQ3MzggNjUxLjczOTksMTg1OC4zODMgNjQ1LjQ4MDEsMTg1Mi40NTcgQzY0Mi40NTc3LDE4NTkuNjk4NiA2MzYuNDQ3MywxODU5LjYxMzEgNjMxLjgwNTcsMTg1NC4yMDc4IEM2MjcuODgwNSwxODYyLjE0MzggNjIwLjUwNTksMTg2My40NTc1IDYxNS4xMTQsMTg1NS43NzUzIEM2MTIuMzAwMSwxODYzLjA2MzcgNjA1LjExOTgsMTg2NC4wMjQgNjAwLjY1OTgsMTg1Ny40OTc1IEM1OTUuODgxOSwxODY0Ljk0NTggNTg5LjgwNDIsMTg2NS44IDU4NS4wNTc0LDE4NTcuNDY2NyBDNTgwLjQ1MDcsMTg2NS4yODQ0IDU3My40OTAxLDE4NjQuMDUyNSA1NjkuNTg5LDE4NTYuNzQ1MSBDNTYzLjQwNTMsMTg2Mi41ODgzIDU1Ni42MjkzLDE4NjEuMjUwNSA1NTMuMDY0NywxODUzLjU0OTcgQzU0OC42NDQ3LDE4NTkuNDI4NyA1NDIuODE5OSwxODYwLjMwMTYgNTM4LjQxOTMsMTg1My41MjczIEM1MzIuNDQxOSwxODU5LjA1MzYgNTI3LjEzNTMsMTg1OC41MTc5IDUyMy4wMDI3LDE4NTEuMjk2MiBDNTE3LjQzNDEsMTg1OS43NDI5IDUxMC40NTksMTg1OS44NTIyIDUwNS44Nzg2LDE4NTAuMzUzMiBDNTAwLjA2MDgsMTg1Ni43NzMzIDQ5NC45MzI4LDE4NTYuNjg0NiA0OTAuNzUwOSwxODQ4LjY0MjEgQzQ4NS44MTg1LDE4NTUuODM1NyA0NzkuNTg4OSwxODU0LjI0NjkgNDc2LjAwNTYsMTg0Ny4yNDEgQzQ1OS4wODg5LDE4NDUuODcxNSA0NTcuNTM3NywxODM1LjgyNTQgNDY0LjM5OTIsMTgyMy4wNDgzIEM0NTguODI5NCwxODEyLjY1NzkgNDYzLjM4MDEsMTgwMy4yMjggNDc1LjkwODMsMTgwMy40ODQxIiBmaWxsPSIjRjFGMUYxIiBzdHlsZT0ic3Ryb2tlOiMxODE4MTg7c3Ryb2tlLXdpZHRoOjAuNTsiLz48dGV4dCBmaWxsPSIjMDAwMDAwIiBmb250LWZhbWlseT0ic2Fucy1zZXJpZiIgZm9udC1zaXplPSIxNCIgbGVuZ3RoQWRqdXN0PSJzcGFjaW5nIiB0ZXh0TGVuZ3RoPSIxMjYiIHg9IjQ4MS4yNjY0IiB5PSIxODIxLjIxODgiPkV2YWx1YXRpb24gTWV0cmljczwvdGV4dD48dGV4dCBmaWxsPSIjMDAwMDAwIiBmb250LWZhbWlseT0ic2Fucy1zZXJpZiIgZm9udC1zaXplPSIxNCIgbGVuZ3RoQWRqdXN0PSJzcGFjaW5nIiB0ZXh0TGVuZ3RoPSIyMDMiIHg9IjQ4MS4yNjY0IiB5PSIxODM2LjIwMzEiPihBY2N1cmFjeSBAIFRocj0wLjksIFJPQyBBVUMpPC90ZXh0PjwvZz48IS0tbGluayBJbnB1dERGIHRvIEZlYXR1cmVFbmctLT48ZyBjbGFzcz0ibGluayIgZGF0YS1lbnRpdHktMT0iSW5wdXRERiIgZGF0YS1lbnRpdHktMj0iRmVhdHVyZUVuZyIgZGF0YS1zb3VyY2UtbGluZT0iMjMiIGRhdGEtdWlkPSJsbms1IiBpZD0ibGlua19JbnB1dERGX0ZlYXR1cmVFbmciPjxwYXRoIGQ9Ik00NTUuNzY2NCwxMDEuMTI0NCBDNDU1Ljc2NjQsMTE5LjkwNDQgNDU1Ljc2NjQsMTM4LjE4NDQgNDU1Ljc2NjQsMTU1Ljk1NDQiIGZpbGw9Im5vbmUiIGlkPSJJbnB1dERGLXRvLUZlYXR1cmVFbmciIHN0eWxlPSJzdHJva2U6IzE4MTgxODtzdHJva2Utd2lkdGg6MTsiLz48cG9seWdvbiBmaWxsPSIjMTgxODE4IiBwb2ludHM9IjQ1NS43NjY0LDE2MS45NTQ0LDQ1OS43NjY0LDE1Mi45NTQ0LDQ1NS43NjY0LDE1Ni45NTQ0LDQ1MS43NjY0LDE1Mi45NTQ0LDQ1NS43NjY0LDE2MS45NTQ0IiBzdHlsZT0ic3Ryb2tlOiMxODE4MTg7c3Ryb2tlLXdpZHRoOjE7Ii8+PC9nPjwhLS1saW5rIEZlYXR1cmVFbmcgdG8gRmVhdHVyZVNlbGVjdC0tPjxnIGNsYXNzPSJsaW5rIiBkYXRhLWVudGl0eS0xPSJGZWF0dXJlRW5nIiBkYXRhLWVudGl0eS0yPSJGZWF0dXJlU2VsZWN0IiBkYXRhLXNvdXJjZS1saW5lPSIyNCIgZGF0YS11aWQ9ImxuazYiIGlkPSJsaW5rX0ZlYXR1cmVFbmdfRmVhdHVyZVNlbGVjdCI+PHBhdGggZD0iTTQ1NS43NjY0LDIxMi4xNzQ0IEM0NTUuNzY2NCwyMzAuMjM0NCA0NTUuNzY2NCwyNDguODE0NCA0NTUuNzY2NCwyNjYuODY0NCIgZmlsbD0ibm9uZSIgaWQ9IkZlYXR1cmVFbmctdG8tRmVhdHVyZVNlbGVjdCIgc3R5bGU9InN0cm9rZTojMTgxODE4O3N0cm9rZS13aWR0aDoxOyIvPjxwb2x5Z29uIGZpbGw9IiMxODE4MTgiIHBvaW50cz0iNDU1Ljc2NjQsMjcyLjg2NDQsNDU5Ljc2NjQsMjYzLjg2NDQsNDU1Ljc2NjQsMjY3Ljg2NDQsNDUxLjc2NjQsMjYzLjg2NDQsNDU1Ljc2NjQsMjcyLjg2NDQiIHN0eWxlPSJzdHJva2U6IzE4MTgxODtzdHJva2Utd2lkdGg6MTsiLz48L2c+PCEtLWxpbmsgRmVhdHVyZVNlbGVjdCB0byBEYXRhc2V0LS0+PGcgY2xhc3M9ImxpbmsiIGRhdGEtZW50aXR5LTE9IkZlYXR1cmVTZWxlY3QiIGRhdGEtZW50aXR5LTI9IkRhdGFzZXQiIGRhdGEtc291cmNlLWxpbmU9IjMxIiBkYXRhLXVpZD0ibG5rMTAiIGlkPSJsaW5rX0ZlYXR1cmVTZWxlY3RfRGF0YXNldCI+PHBhdGggZD0iTTQ1NS43NjY0LDMyMy4xNzQ0IEM0NTUuNzY2NCwzNDEuMjM0NCA0NTUuNzY2NCwzNTkuODE0NCA0NTUuNzY2NCwzNzcuODY0NCIgZmlsbD0ibm9uZSIgaWQ9IkZlYXR1cmVTZWxlY3QtdG8tRGF0YXNldCIgc3R5bGU9InN0cm9rZTojMTgxODE4O3N0cm9rZS13aWR0aDoxOyIvPjxwb2x5Z29uIGZpbGw9IiMxODE4MTgiIHBvaW50cz0iNDU1Ljc2NjQsMzgzLjg2NDQsNDU5Ljc2NjQsMzc0Ljg2NDQsNDU1Ljc2NjQsMzc4Ljg2NDQsNDUxLjc2NjQsMzc0Ljg2NDQsNDU1Ljc2NjQsMzgzLjg2NDQiIHN0eWxlPSJzdHJva2U6IzE4MTgxODtzdHJva2Utd2lkdGg6MTsiLz48L2c+PCEtLWxpbmsgRGF0YXNldCB0byBMb2FkZXItLT48ZyBjbGFzcz0ibGluayIgZGF0YS1lbnRpdHktMT0iRGF0YXNldCIgZGF0YS1lbnRpdHktMj0iTG9hZGVyIiBkYXRhLXNvdXJjZS1saW5lPSIzMiIgZGF0YS11aWQ9ImxuazExIiBpZD0ibGlua19EYXRhc2V0X0xvYWRlciI+PHBhdGggZD0iTTQ1NS43NjY0LDQzMy45OTQ0IEM0NTUuNzY2NCw0NTUuNTI0NCA0NTUuNzY2NCw0ODAuOTc0NCA0NTUuNzY2NCw1MDIuNjE0NCIgZmlsbD0ibm9uZSIgaWQ9IkRhdGFzZXQtdG8tTG9hZGVyIiBzdHlsZT0ic3Ryb2tlOiMxODE4MTg7c3Ryb2tlLXdpZHRoOjE7Ii8+PHBvbHlnb24gZmlsbD0iIzE4MTgxOCIgcG9pbnRzPSI0NTUuNzY2NCw1MDguNjE0NCw0NTkuNzY2NCw0OTkuNjE0NCw0NTUuNzY2NCw1MDMuNjE0NCw0NTEuNzY2NCw0OTkuNjE0NCw0NTUuNzY2NCw1MDguNjE0NCIgc3R5bGU9InN0cm9rZTojMTgxODE4O3N0cm9rZS13aWR0aDoxOyIvPjx0ZXh0IGZpbGw9IiMwMDAwMDAiIGZvbnQtZmFtaWx5PSJzYW5zLXNlcmlmIiBmb250LXNpemU9IjEzIiBsZW5ndGhBZGp1c3Q9InNwYWNpbmciIHRleHRMZW5ndGg9IjI0MC41IiB4PSI0NTYuNzY2NCIgeT0iNDc3LjI3MzQiPihTZXF1ZW5jZSBbMTksIDEyXSwgVGFyZ2V0IFsxXSkgcGFpcnM8L3RleHQ+PC9nPjwhLS1saW5rIExvYWRlciB0byBUYXJnZXRzLS0+PGcgY2xhc3M9ImxpbmsiIGRhdGEtZW50aXR5LTE9IkxvYWRlciIgZGF0YS1lbnRpdHktMj0iVGFyZ2V0cyIgZGF0YS1zb3VyY2UtbGluZT0iMzMiIGRhdGEtdWlkPSJsbmsxMiIgaWQ9ImxpbmtfTG9hZGVyX1RhcmdldHMiPjxwYXRoIGQ9Ik01NDQuMjQ2NCw1NTkuMDA0NCBDNjE3LjU0NjQsNTg0LjkwNDQgNzA5Ljc2NjQsNjM0LjE0NDQgNzA5Ljc2NjQsNzE3Ljk4NDQgQzcwOS43NjY0LDcxNy45ODQ0IDcwOS43NjY0LDcxNy45ODQ0IDcwOS43NjY0LDE1ODguNDg0NCBDNzA5Ljc2NjQsMTYxNS4wNDQ0IDcxMi4zNzQyLDE2MzkuMzgxIDcxNS4yMTQyLDE2NTkuOTExIiBmaWxsPSJub25lIiBpZD0iTG9hZGVyLXRvLVRhcmdldHMiIHN0eWxlPSJzdHJva2U6IzE4MTgxODtzdHJva2Utd2lkdGg6MTsiLz48cG9seWdvbiBmaWxsPSIjMTgxODE4IiBwb2ludHM9IjcxNi4wMzY0LDE2NjUuODU0NCw3MTguNzY1NCwxNjU2LjM5MTIsNzE1LjM1MTIsMTY2MC45MDE1LDcxMC44NDA5LDE2NTcuNDg3NCw3MTYuMDM2NCwxNjY1Ljg1NDQiIHN0eWxlPSJzdHJva2U6IzE4MTgxODtzdHJva2Utd2lkdGg6MTsiLz48dGV4dCBmaWxsPSIjMDAwMDAwIiBmb250LWZhbWlseT0ic2Fucy1zZXJpZiIgZm9udC1zaXplPSIxMyIgbGVuZ3RoQWRqdXN0PSJzcGFjaW5nIiB0ZXh0TGVuZ3RoPSI5Ny41IiB4PSI3MTAuNzY2NCIgeT0iMTEzMy4yNzM0Ij5CYXRjaGVkIFRhcmdldHM8L3RleHQ+PC9nPjwhLS1saW5rIEJpTFNUTSB0byBBdHRlbnRpb24tLT48ZyBjbGFzcz0ibGluayIgZGF0YS1lbnRpdHktMT0iQmlMU1RNIiBkYXRhLWVudGl0eS0yPSJBdHRlbnRpb24iIGRhdGEtc291cmNlLWxpbmU9IjUxIiBkYXRhLXVpZD0ibG5rMjkiIGlkPSJsaW5rX0JpTFNUTV9BdHRlbnRpb24iPjxwYXRoIGQ9Ik0yMDIuNzY2NCw3NDMuOTk0NCBDMjAyLjc2NjQsNzY1LjUyNDQgMjAyLjc2NjQsNzkwLjk3NDQgMjAyLjc2NjQsODEyLjYxNDQiIGZpbGw9Im5vbmUiIGlkPSJCaUxTVE0tdG8tQXR0ZW50aW9uIiBzdHlsZT0ic3Ryb2tlOiMxODE4MTg7c3Ryb2tlLXdpZHRoOjE7Ii8+PHBvbHlnb24gZmlsbD0iIzE4MTgxOCIgcG9pbnRzPSIyMDIuNzY2NCw4MTguNjE0NCwyMDYuNzY2NCw4MDkuNjE0NCwyMDIuNzY2NCw4MTMuNjE0NCwxOTguNzY2NCw4MDkuNjE0NCwyMDIuNzY2NCw4MTguNjE0NCIgc3R5bGU9InN0cm9rZTojMTgxODE4O3N0cm9rZS13aWR0aDoxOyIvPjx0ZXh0IGZpbGw9IiMwMDAwMDAiIGZvbnQtZmFtaWx5PSJzYW5zLXNlcmlmIiBmb250LXNpemU9IjEzIiBsZW5ndGhBZGp1c3Q9InNwYWNpbmciIHRleHRMZW5ndGg9IjI2MCIgeD0iMjAzLjc2NjQiIHk9Ijc4Ny4yNzM0Ij4oU2VxIGRpbWVuc2lvbiB0cmFuc3Bvc2VkIGZvciBBdHRlbnRpb24pPC90ZXh0PjwvZz48IS0tbGluayBBdHRlbnRpb24gdG8gTE4tLT48ZyBjbGFzcz0ibGluayIgZGF0YS1lbnRpdHktMT0iQXR0ZW50aW9uIiBkYXRhLWVudGl0eS0yPSJMTiIgZGF0YS1zb3VyY2UtbGluZT0iNTIiIGRhdGEtdWlkPSJsbmszMCIgaWQ9ImxpbmtfQXR0ZW50aW9uX0xOIj48cGF0aCBkPSJNMjA5LjI2NjQsODY5LjE5NDQgQzIxNS4yNjY0LDg5MS41NTQ0IDIyMi40NjA1LDkxOC4zNzk2IDIyNy43MjA1LDkzNy45Njk2IiBmaWxsPSJub25lIiBpZD0iQXR0ZW50aW9uLXRvLUxOIiBzdHlsZT0ic3Ryb2tlOiMxODE4MTg7c3Ryb2tlLXdpZHRoOjE7Ii8+PHBvbHlnb24gZmlsbD0iIzE4MTgxOCIgcG9pbnRzPSIyMjkuMjc2NCw5NDMuNzY0NCwyMzAuODA1Nyw5MzQuMDM1LDIyNy45Nzk4LDkzOC45MzU0LDIyMy4wNzk0LDkzNi4xMDk1LDIyOS4yNzY0LDk0My43NjQ0IiBzdHlsZT0ic3Ryb2tlOiMxODE4MTg7c3Ryb2tlLXdpZHRoOjE7Ii8+PHRleHQgZmlsbD0iIzAwMDAwMCIgZm9udC1mYW1pbHk9InNhbnMtc2VyaWYiIGZvbnQtc2l6ZT0iMTMiIGxlbmd0aEFkanVzdD0ic3BhY2luZyIgdGV4dExlbmd0aD0iMjAxLjUiIHg9IjIyMS43NjY0IiB5PSI5MTIuMjczNCI+KFNlcSBkaW1lbnNpb24gdHJhbnNwb3NlZCBiYWNrKTwvdGV4dD48L2c+PCEtLWxpbmsgTE4gdG8gQWRkTm9kZS0tPjxnIGNsYXNzPSJsaW5rIiBkYXRhLWVudGl0eS0xPSJMTiIgZGF0YS1lbnRpdHktMj0iQWRkTm9kZSIgZGF0YS1zb3VyY2UtbGluZT0iNTUiIGRhdGEtdWlkPSJsbmszMSIgaWQ9ImxpbmtfTE5fQWRkTm9kZSI+PHBhdGggZD0iTTIzMS42NDY0LDk3OS4wNjQ0IEMyMjkuMjE2NCwxMDA1LjE0NDQgMjI4LjIxNjQsMTA1Ni4yNjQ0IDI1MS43NjY0LDEwODkuOTg0NCBDMjkyLjE3NjQsMTE0Ny44NTQ0IDMzMS41MzY0LDExMjguMTY0NCAzOTEuNzY2NCwxMTY0Ljk4NDQgQzM5Ny4zODY0LDExNjguNDI0NCAzOTguNTU4NiwxMTY5LjExNDYgNDAzLjQxODYsMTE3Mi41NzQ2IiBmaWxsPSJub25lIiBpZD0iTE4tdG8tQWRkTm9kZSIgc3R5bGU9InN0cm9rZTojMTgxODE4O3N0cm9rZS13aWR0aDoxOyIvPjxwb2x5Z29uIGZpbGw9IiMxODE4MTgiIHBvaW50cz0iNDA4LjMwNjQsMTE3Ni4wNTQ0LDQwMy4yOTQ1LDExNjcuNTc2MSw0MDQuMjMzMiwxMTczLjE1NDUsMzk4LjY1NDgsMTE3NC4wOTMyLDQwOC4zMDY0LDExNzYuMDU0NCIgc3R5bGU9InN0cm9rZTojMTgxODE4O3N0cm9rZS13aWR0aDoxOyIvPjx0ZXh0IGZpbGw9IiMwMDAwMDAiIGZvbnQtZmFtaWx5PSJzYW5zLXNlcmlmIiBmb250LXNpemU9IjEzIiBsZW5ndGhBZGp1c3Q9InNwYWNpbmciIHRleHRMZW5ndGg9Ijg0LjUiIHg9IjI1Mi43NjY0IiB5PSIxMDcwLjc3MzQiPklkZW50aXR5IFBhdGg8L3RleHQ+PC9nPjwhLS1saW5rIExOIHRvIFJlc0xpbmVhci0tPjxnIGNsYXNzPSJsaW5rIiBkYXRhLWVudGl0eS0xPSJMTiIgZGF0YS1lbnRpdHktMj0iUmVzTGluZWFyIiBkYXRhLXNvdXJjZS1saW5lPSI1NiIgZGF0YS11aWQ9ImxuazMyIiBpZD0ibGlua19MTl9SZXNMaW5lYXIiPjxwYXRoIGQ9Ik0yNjMuNzM2NCw5NzkuMDE0NCBDMjkzLjY3NjQsOTk1LjUzNDQgMzM0Ljc2MjksMTAxOC4xOTYgMzY4LjgwMjksMTAzNi45NzYiIGZpbGw9Im5vbmUiIGlkPSJMTi10by1SZXNMaW5lYXIiIHN0eWxlPSJzdHJva2U6IzE4MTgxODtzdHJva2Utd2lkdGg6MTsiLz48cG9seWdvbiBmaWxsPSIjMTgxODE4IiBwb2ludHM9IjM3NC4wNTY0LDEwMzkuODc0NCwzNjguMTA4NCwxMDMyLjAyNDUsMzY5LjY3ODUsMTAzNy40NTkxLDM2NC4yNDM5LDEwMzkuMDI5MSwzNzQuMDU2NCwxMDM5Ljg3NDQiIHN0eWxlPSJzdHJva2U6IzE4MTgxODtzdHJva2Utd2lkdGg6MTsiLz48L2c+PCEtLWxpbmsgUmVzTGluZWFyIHRvIEFkZE5vZGUtLT48ZyBjbGFzcz0ibGluayIgZGF0YS1lbnRpdHktMT0iUmVzTGluZWFyIiBkYXRhLWVudGl0eS0yPSJBZGROb2RlIiBkYXRhLXNvdXJjZS1saW5lPSI1NyIgZGF0YS11aWQ9ImxuazMzIiBpZD0ibGlua19SZXNMaW5lYXJfQWRkTm9kZSI+PHBhdGggZD0iTTQxNy43NjY0LDEwOTAuMjI0NCBDNDE3Ljc2NjQsMTExNi43MzQ0IDQxNy43NjY0LDExNTEuNzI0NCA0MTcuNzY2NCwxMTY4Ljk0NDQiIGZpbGw9Im5vbmUiIGlkPSJSZXNMaW5lYXItdG8tQWRkTm9kZSIgc3R5bGU9InN0cm9rZTojMTgxODE4O3N0cm9rZS13aWR0aDoxOyIvPjxwb2x5Z29uIGZpbGw9IiMxODE4MTgiIHBvaW50cz0iNDE3Ljc2NjQsMTE3NC45NDQ0LDQyMS43NjY0LDExNjUuOTQ0NCw0MTcuNzY2NCwxMTY5Ljk0NDQsNDEzLjc2NjQsMTE2NS45NDQ0LDQxNy43NjY0LDExNzQuOTQ0NCIgc3R5bGU9InN0cm9rZTojMTgxODE4O3N0cm9rZS13aWR0aDoxOyIvPjx0ZXh0IGZpbGw9IiMwMDAwMDAiIGZvbnQtZmFtaWx5PSJzYW5zLXNlcmlmIiBmb250LXNpemU9IjEzIiBsZW5ndGhBZGp1c3Q9InNwYWNpbmciIHRleHRMZW5ndGg9Ijg0LjUiIHg9IjQxOC43NjY0IiB5PSIxMTMzLjI3MzQiPlJlc2lkdWFsIFBhdGg8L3RleHQ+PC9nPjwhLS1saW5rIEZDMSB0byBGQzItLT48ZyBjbGFzcz0ibGluayIgZGF0YS1lbnRpdHktMT0iRkMxIiBkYXRhLWVudGl0eS0yPSJGQzIiIGRhdGEtc291cmNlLWxpbmU9IjY2IiBkYXRhLXVpZD0ibG5rNDEiIGlkPSJsaW5rX0ZDMV9GQzIiPjxwYXRoIGQ9Ik00MTcuOTc2NCwxNDU4LjQ4NDQgQzQyOS43MTY0LDE0NTguNDg0NCA0MzUuNDQ2NCwxNDU4LjQ4NDQgNDQ3LjE3NjQsMTQ1OC40ODQ0IiBmaWxsPSJub25lIiBpZD0iRkMxLXRvLUZDMiIgc3R5bGU9InN0cm9rZTojMTgxODE4O3N0cm9rZS13aWR0aDoxOyIvPjxwb2x5Z29uIGZpbGw9IiMxODE4MTgiIHBvaW50cz0iNDUzLjE3NjQsMTQ1OC40ODQ0LDQ0NC4xNzY0LDE0NTQuNDg0NCw0NDguMTc2NCwxNDU4LjQ4NDQsNDQ0LjE3NjQsMTQ2Mi40ODQ0LDQ1My4xNzY0LDE0NTguNDg0NCIgc3R5bGU9InN0cm9rZTojMTgxODE4O3N0cm9rZS13aWR0aDoxOyIvPjwvZz48IS0tbGluayBGQ0hlYWQgdG8gR01ONDItLT48ZyBjbGFzcz0ibGluayIgZGF0YS1lbnRpdHktMT0iRkNIZWFkIiBkYXRhLWVudGl0eS0yPSJHTU40MiIgZGF0YS1zb3VyY2UtbGluZT0iNjgiIGRhdGEtdWlkPSJsbms0NCIgaWQ9ImxpbmtfRkNIZWFkX0dNTjQyIj48cGF0aCBkPSJNMjE0Ljc0MTcsMTQ1OC40ODQ0IEMyMTQuMzg1OCwxNDU4LjQ4NDQgMjE0LjAyOTgsMTQ1OC40ODQ0IDIxMy42NzM5LDE0NTguNDg0NCBDMjEwLjgyNjQsMTQ1OC40ODQ0IDIwNy45Nzg5LDE0NTguNDg0NCAyMDUuMTMxNCwxNDU4LjQ4NDQgQzE5OS40MzY0LDE0NTguNDg0NCAxOTMuNzQxNCwxNDU4LjQ4NDQgMTg4LjA0NjQsMTQ1OC40ODQ0IiBmaWxsPSJub25lIiBpZD0iRkNIZWFkLUdNTjQyIiBzdHlsZT0ic3Ryb2tlOiMxODE4MTg7c3Ryb2tlLXdpZHRoOjE7c3Ryb2tlLWRhc2hhcnJheTo3LjAsNy4wOyIvPjwvZz48IS0tbGluayBBZGROb2RlIHRvIE1lYW5Qb29sLS0+PGcgY2xhc3M9ImxpbmsiIGRhdGEtZW50aXR5LTE9IkFkZE5vZGUiIGRhdGEtZW50aXR5LTI9Ik1lYW5Qb29sIiBkYXRhLXNvdXJjZS1saW5lPSI3NSIgZGF0YS11aWQ9ImxuazQ3IiBpZD0ibGlua19BZGROb2RlX01lYW5Qb29sIj48cGF0aCBkPSJNNDEzLjU4NjQsMTE5My4xNzQ0IEM0MDguOTA2NCwxMjAxLjk4NDQgNDAwLjc2NjQsMTIxNi4xNzQ0IDM5MS43NjY0LDEyMjYuOTg0NCBDMzc1LjU3NjQsMTI0Ni40MTQ0IDM1OS4xMzY0LDEyNjEuNjYyMiAzNDIuMDM2NCwxMjc1Ljk4MjIiIGZpbGw9Im5vbmUiIGlkPSJBZGROb2RlLXRvLU1lYW5Qb29sIiBzdHlsZT0ic3Ryb2tlOiMxODE4MTg7c3Ryb2tlLXdpZHRoOjE7Ii8+PHBvbHlnb24gZmlsbD0iIzE4MTgxOCIgcG9pbnRzPSIzMzcuNDM2NCwxMjc5LjgzNDQsMzQ2LjkwNDYsMTI3Ny4xMjI4LDM0MS4yNjk4LDEyNzYuNjI0MiwzNDEuNzY4MywxMjcwLjk4OTQsMzM3LjQzNjQsMTI3OS44MzQ0IiBzdHlsZT0ic3Ryb2tlOiMxODE4MTg7c3Ryb2tlLXdpZHRoOjE7Ii8+PHRleHQgZmlsbD0iIzAwMDAwMCIgZm9udC1mYW1pbHk9InNhbnMtc2VyaWYiIGZvbnQtc2l6ZT0iMTMiIGxlbmd0aEFkanVzdD0ic3BhY2luZyIgdGV4dExlbmd0aD0iMTM2LjUiIHg9IjM4My43NjY0IiB5PSIxMjQ4LjI3MzQiPk91dHB1dCBvZiBMYXllciBCbG9jazwvdGV4dD48L2c+PCEtLWxpbmsgTWVhblBvb2wgdG8gRkNIZWFkLS0+PGcgY2xhc3M9ImxpbmsiIGRhdGEtZW50aXR5LTE9Ik1lYW5Qb29sIiBkYXRhLWVudGl0eS0yPSJGQ0hlYWQiIGRhdGEtc291cmNlLWxpbmU9Ijc2IiBkYXRhLXVpZD0ibG5rNDgiIGlkPSJsaW5rX01lYW5Qb29sX0ZDSGVhZCI+PHBhdGggZD0iTTI3NC42MjY0LDEzMzAuMjI0NCBDMjYyLjYwNjQsMTM0MC44NTQ0IDI0OS45MTY0LDEzNTQuMjc0NCAyNDEuNzY2NCwxMzY4Ljk4NDQgQzIzOS40MDM5LDEzNzMuMjQ0NCAyMzcuMzM0OCwxMzc3Ljc3MDUgMjM1LjUyMjgsMTM4Mi40MzU3IEMyMzUuMjk2MywxMzgzLjAxODkgMjM1LjA3MzgsMTM4My42MDQyIDIzNC44NTUzLDEzODQuMTkxNSBDMjM0LjgwMDYsMTM4NC4zMzgzIDIzNi44MTkzLDEzNzguODU0OCAyMzYuNzY1MiwxMzc5LjAwMTgiIGZpbGw9Im5vbmUiIGlkPSJNZWFuUG9vbC10by1GQ0hlYWQiIHN0eWxlPSJzdHJva2U6IzE4MTgxODtzdHJva2Utd2lkdGg6MTsiLz48cG9seWdvbiBmaWxsPSIjMTgxODE4IiBwb2ludHM9IjIzNC42OTIxLDEzODQuNjMyMywyNDEuNTU1NCwxMzc3LjU2ODcsMjM2LjQxOTcsMTM3OS45NDAyLDIzNC4wNDgxLDEzNzQuODA0NSwyMzQuNjkyMSwxMzg0LjYzMjMiIHN0eWxlPSJzdHJva2U6IzE4MTgxODtzdHJva2Utd2lkdGg6MTsiLz48L2c+PCEtLWxpbmsgRkNIZWFkIHRvIFNpZ21vaWQtLT48ZyBjbGFzcz0ibGluayIgZGF0YS1lbnRpdHktMT0iRkNIZWFkIiBkYXRhLWVudGl0eS0yPSJTaWdtb2lkIiBkYXRhLXNvdXJjZS1saW5lPSI3NyIgZGF0YS11aWQ9ImxuazQ5IiBpZD0ibGlua19GQ0hlYWRfU2lnbW9pZCI+PHBhdGggZD0iTTIyOS43OTMzLDE1MTUuMjgyNiBDMjI5Ljg0MDMsMTUxNS42NTU5IDIyOS44ODc0LDE1MTYuMDI5NiAyMjkuOTM0NSwxNTE2LjQwMzYgQzIzMC4xMjMsMTUxNy44OTk3IDIzMC4zMTIxLDE1MTkuNDAwNiAyMzAuNTAxNCwxNTIwLjkwMzIgQzIzMS4yNTg2LDE1MjYuOTEzMyAyMzIuMDE4OSwxNTMyLjk0ODQgMjMyLjc1NTEsMTUzOC43OTI3IEMyMzQuMjI3NiwxNTUwLjQ4MTMgMjM0Ljg1NDMsMTU1NS40NTM5IDIzNS45MTY4LDE1NjMuODkxNCIgZmlsbD0ibm9uZSIgaWQ9IkZDSGVhZC10by1TaWdtb2lkIiBzdHlsZT0ic3Ryb2tlOiMxODE4MTg7c3Ryb2tlLXdpZHRoOjE7Ii8+PHBvbHlnb24gZmlsbD0iIzE4MTgxOCIgcG9pbnRzPSIyMzYuNjY2NCwxNTY5Ljg0NDQsMjM5LjUxMDYsMTU2MC40MTUxLDIzNi4wNDE3LDE1NjQuODgzNiwyMzEuNTczMywxNTYxLjQxNDcsMjM2LjY2NjQsMTU2OS44NDQ0IiBzdHlsZT0ic3Ryb2tlOiMxODE4MTg7c3Ryb2tlLXdpZHRoOjE7Ii8+PC9nPjwhLS1saW5rIFNpZ21vaWQgdG8gT3V0cHV0UHJvYnMtLT48ZyBjbGFzcz0ibGluayIgZGF0YS1lbnRpdHktMT0iU2lnbW9pZCIgZGF0YS1lbnRpdHktMj0iT3V0cHV0UHJvYnMiIGRhdGEtc291cmNlLWxpbmU9Ijc4IiBkYXRhLXVpZD0ibG5rNTAiIGlkPSJsaW5rX1NpZ21vaWRfT3V0cHV0UHJvYnMiPjxwYXRoIGQ9Ik0yNDIuNzI2NCwxNjA1LjI0NDQgQzI0Ni42MzY0LDE2MjEuNzk0NCAyNTEuMjg2MiwxNjQxLjQ0NTMgMjU1LjcwNjIsMTY2MC4xNDUzIiBmaWxsPSJub25lIiBpZD0iU2lnbW9pZC10by1PdXRwdXRQcm9icyIgc3R5bGU9InN0cm9rZTojMTgxODE4O3N0cm9rZS13aWR0aDoxOyIvPjxwb2x5Z29uIGZpbGw9IiMxODE4MTgiIHBvaW50cz0iMjU3LjA4NjQsMTY2NS45ODQ0LDI1OC45MDg5LDE2NTYuMzA1NiwyNTUuOTM2MywxNjYxLjExODUsMjUxLjEyMzQsMTY1OC4xNDU4LDI1Ny4wODY0LDE2NjUuOTg0NCIgc3R5bGU9InN0cm9rZTojMTgxODE4O3N0cm9rZS13aWR0aDoxOyIvPjwvZz48IS0tbGluayBMb2FkZXIgdG8gQmlMU1RNLS0+PGcgY2xhc3M9ImxpbmsiIGRhdGEtZW50aXR5LTE9IkxvYWRlciIgZGF0YS1lbnRpdHktMj0iQmlMU1RNIiBkYXRhLXNvdXJjZS1saW5lPSI4MiIgZGF0YS11aWQ9ImxuazUxIiBpZD0ibGlua19Mb2FkZXJfQmlMU1RNIj48cGF0aCBkPSJNMzg5LjU1NjQsNTU5LjAzNDQgQzM1OC43MjY0LDU3Mi4wMzQ0IDMyMi41ODY0LDU4OS45NTQ0IDI5My43NjY0LDYxMS45ODQ0IEMyNjMuMTI2NCw2MzUuNDA0NCAyMzguOTEzMSw2NjUuNzM0MyAyMjIuMzMzMSw2ODkuMDU0MyIgZmlsbD0ibm9uZSIgaWQ9IkxvYWRlci10by1CaUxTVE0iIHN0eWxlPSJzdHJva2U6IzE4MTgxODtzdHJva2Utd2lkdGg6MTsiLz48cG9seWdvbiBmaWxsPSIjMTgxODE4IiBwb2ludHM9IjIxOC44NTY0LDY5My45NDQ0LDIyNy4zMzE1LDY4OC45MjcxLDIyMS43NTM3LDY4OS44NjkzLDIyMC44MTE0LDY4NC4yOTE1LDIxOC44NTY0LDY5My45NDQ0IiBzdHlsZT0ic3Ryb2tlOiMxODE4MTg7c3Ryb2tlLXdpZHRoOjE7Ii8+PHRleHQgZmlsbD0iIzAwMDAwMCIgZm9udC1mYW1pbHk9InNhbnMtc2VyaWYiIGZvbnQtc2l6ZT0iMTMiIGxlbmd0aEFkanVzdD0ic3BhY2luZyIgdGV4dExlbmd0aD0iMjE0LjUiIHg9IjMyNi43NjY0IiB5PSI2MDIuMjczNCI+QmF0Y2hlZCBTZXF1ZW5jZXMgW0JhdGNoLCAxOSwgMTJdPC90ZXh0PjwvZz48IS0tbGluayBPdXRwdXRQcm9icyB0byBMb3NzQ2FsYy0tPjxnIGNsYXNzPSJsaW5rIiBkYXRhLWVudGl0eS0xPSJPdXRwdXRQcm9icyIgZGF0YS1lbnRpdHktMj0iTG9zc0NhbGMiIGRhdGEtc291cmNlLWxpbmU9Ijg5IiBkYXRhLXVpZD0ibG5rNTYiIGlkPSJsaW5rX091dHB1dFByb2JzX0xvc3NDYWxjIj48cGF0aCBkPSJNMjYyLjc2NjQsMTcxNi4xMzQ0IEMyNjIuNzY2NCwxNzQyLjEyNDQgMjYyLjc2NjQsMTc3Ni43NzQ0IDI2Mi43NjY0LDE3OTkuMzk0NCIgZmlsbD0ibm9uZSIgaWQ9Ik91dHB1dFByb2JzLXRvLUxvc3NDYWxjIiBzdHlsZT0ic3Ryb2tlOiMxODE4MTg7c3Ryb2tlLXdpZHRoOjE7Ii8+PHBvbHlnb24gZmlsbD0iIzE4MTgxOCIgcG9pbnRzPSIyNjIuNzY2NCwxODA1LjM5NDQsMjY2Ljc2NjQsMTc5Ni4zOTQ0LDI2Mi43NjY0LDE4MDAuMzk0NCwyNTguNzY2NCwxNzk2LjM5NDQsMjYyLjc2NjQsMTgwNS4zOTQ0IiBzdHlsZT0ic3Ryb2tlOiMxODE4MTg7c3Ryb2tlLXdpZHRoOjE7Ii8+PC9nPjwhLS1saW5rIFRhcmdldHMgdG8gTG9zc0NhbGMtLT48ZyBjbGFzcz0ibGluayIgZGF0YS1lbnRpdHktMT0iVGFyZ2V0cyIgZGF0YS1lbnRpdHktMj0iTG9zc0NhbGMiIGRhdGEtc291cmNlLWxpbmU9IjkwIiBkYXRhLXVpZD0ibG5rNTciIGlkPSJsaW5rX1RhcmdldHNfTG9zc0NhbGMiPjxwYXRoIGQ9Ik02ODguOTE2NCwxNzE2LjA2NDQgQzY3Ni44OTY0LDE3MjQuNTY0NCA2NjIuNjg2NCwxNzMzLjU4NDQgNjQ4Ljc2NjQsMTczOS45ODQ0IEM1ODUuNTc2NCwxNzY5LjAyNDQgMzg1LjgxMjUsMTgwMi42MzU4IDMwMy4zNTI1LDE4MTUuNjk1OCIgZmlsbD0ibm9uZSIgaWQ9IlRhcmdldHMtdG8tTG9zc0NhbGMiIHN0eWxlPSJzdHJva2U6IzE4MTgxODtzdHJva2Utd2lkdGg6MTsiLz48cG9seWdvbiBmaWxsPSIjMTgxODE4IiBwb2ludHM9IjI5Ny40MjY0LDE4MTYuNjM0NCwzMDYuOTQxMywxODE5LjE3NzMsMzAyLjM2NDgsMTgxNS44NTIyLDMwNS42ODk5LDE4MTEuMjc1NywyOTcuNDI2NCwxODE2LjYzNDQiIHN0eWxlPSJzdHJva2U6IzE4MTgxODtzdHJva2Utd2lkdGg6MTsiLz48L2c+PCEtLWxpbmsgT3V0cHV0UHJvYnMgdG8gRXZhbC0tPjxnIGNsYXNzPSJsaW5rIiBkYXRhLWVudGl0eS0xPSJPdXRwdXRQcm9icyIgZGF0YS1lbnRpdHktMj0iRXZhbCIgZGF0YS1zb3VyY2UtbGluZT0iOTYiIGRhdGEtdWlkPSJsbms1OSIgaWQ9ImxpbmtfT3V0cHV0UHJvYnNfRXZhbCI+PHBhdGggZD0iTTMyMi4yMDY0LDE3MTYuMTM0NCBDMzc1LjcwNjQsMTczNy44NjQ0IDQ0OC44Njc2LDE3NjcuNTg2MSA1MDUuNzc3NiwxNzkwLjcwNjEiIGZpbGw9Im5vbmUiIGlkPSJPdXRwdXRQcm9icy10by1FdmFsIiBzdHlsZT0ic3Ryb2tlOiMxODE4MTg7c3Ryb2tlLXdpZHRoOjE7Ii8+PHBvbHlnb24gZmlsbD0iIzE4MTgxOCIgcG9pbnRzPSI1MTEuMzM2NCwxNzkyLjk2NDQsNTA0LjUwMzcsMTc4NS44NzExLDUwNi43MDQxLDE3OTEuMDgyNSw1MDEuNDkyNywxNzkzLjI4MjgsNTExLjMzNjQsMTc5Mi45NjQ0IiBzdHlsZT0ic3Ryb2tlOiMxODE4MTg7c3Ryb2tlLXdpZHRoOjE7Ii8+PHRleHQgZmlsbD0iIzAwMDAwMCIgZm9udC1mYW1pbHk9InNhbnMtc2VyaWYiIGZvbnQtc2l6ZT0iMTMiIGxlbmd0aEFkanVzdD0ic3BhY2luZyIgdGV4dExlbmd0aD0iMTIzLjUiIHg9IjQzMi43NjY0IiB5PSIxNzYxLjI3MzQiPk1vZGVsIFByb2JhYmlsaXRpZXM8L3RleHQ+PC9nPjwhLS1saW5rIFRhcmdldHMgdG8gRXZhbC0tPjxnIGNsYXNzPSJsaW5rIiBkYXRhLWVudGl0eS0xPSJUYXJnZXRzIiBkYXRhLWVudGl0eS0yPSJFdmFsIiBkYXRhLXNvdXJjZS1saW5lPSI5NyIgZGF0YS11aWQ9ImxuazYwIiBpZD0ibGlua19UYXJnZXRzX0V2YWwiPjxwYXRoIGQ9Ik02OTQuMzE2NCwxNzE2LjEzNDQgQzY3MS40MDY0LDE3MzcuODY0NCA2NDIuMDU4NCwxNzY1LjcxMzkgNjE3LjY5ODQsMTc4OC44MzM5IiBmaWxsPSJub25lIiBpZD0iVGFyZ2V0cy10by1FdmFsIiBzdHlsZT0ic3Ryb2tlOiMxODE4MTg7c3Ryb2tlLXdpZHRoOjE7Ii8+PHBvbHlnb24gZmlsbD0iIzE4MTgxOCIgcG9pbnRzPSI2MTMuMzQ2NCwxNzkyLjk2NDQsNjIyLjYyOCwxNzg5LjY3LDYxNi45NzMsMTc4OS41MjIzLDYxNy4xMjA3LDE3ODMuODY3NCw2MTMuMzQ2NCwxNzkyLjk2NDQiIHN0eWxlPSJzdHJva2U6IzE4MTgxODtzdHJva2Utd2lkdGg6MTsiLz48dGV4dCBmaWxsPSIjMDAwMDAwIiBmb250LWZhbWlseT0ic2Fucy1zZXJpZiIgZm9udC1zaXplPSIxMyIgbGVuZ3RoQWRqdXN0PSJzcGFjaW5nIiB0ZXh0TGVuZ3RoPSI3MS41IiB4PSI2NTkuNzY2NCIgeT0iMTc2MS4yNzM0Ij5UcnVlIExhYmVsczwvdGV4dD48L2c+PCEtLWxpbmsgTG9zc0NhbGMgdG8gQmlMU1RNLS0+PGcgY2xhc3M9ImxpbmsiIGRhdGEtZW50aXR5LTE9Ikxvc3NDYWxjIiBkYXRhLWVudGl0eS0yPSJCaUxTVE0iIGRhdGEtc291cmNlLWxpbmU9IjEwMSIgZGF0YS11aWQ9ImxuazYxIiBpZD0ibGlua19Mb3NzQ2FsY19CaUxTVE0iPjxwYXRoIGQ9Ik0yMzQuODQ2NCwxODA1LjM1NDQgQzIyNy4xNjY0LDE4MDEuMDc0NCAyMTguNzQ2NCwxNzk2LjY0NDQgMjEwLjc2NjQsMTc5Mi45ODQ0IEMxOTcuMDE2NCwxNzg2LjY4NDQgMjguNzY2NCwxNzc2LjQ4NDQgMjguNzY2NCwxNjkxLjk4NDQgQzI4Ljc2NjQsODQyLjk4NDQgMjguNzY2NCw4NDIuOTg0NCAyOC43NjY0LDg0Mi45ODQ0IEMyOC43NjY0LDc5MC41NDQ0IDc2LjUwMSw3NjAuNjA0NCAxMjQuMTIxLDc0Mi40MjQ0IiBmaWxsPSJub25lIiBpZD0iTG9zc0NhbGMtdG8tQmlMU1RNIiBzdHlsZT0ic3Ryb2tlOiMxODE4MTg7c3Ryb2tlLXdpZHRoOjE7c3Ryb2tlLWRhc2hhcnJheTo3LjAsNy4wOyIvPjxwb2x5Z29uIGZpbGw9IiMxODE4MTgiIHBvaW50cz0iMTI5LjcyNjQsNzQwLjI4NDQsMTE5Ljg5MTYsNzM5Ljc1NzQsMTI1LjA1NTIsNzQyLjA2NzcsMTIyLjc0NSw3NDcuMjMxMywxMjkuNzI2NCw3NDAuMjg0NCIgc3R5bGU9InN0cm9rZTojMTgxODE4O3N0cm9rZS13aWR0aDoxOyIvPjxwb2x5Z29uIGZpbGw9Im5vbmUiIHBvaW50cz0iMzQuNzY2NCwxMjM4LjQ0MTQsMzguNzY2NCwxMjQyLjQ0MTQsMzQuNzY2NCwxMjQ2LjQ0MTQsMzAuNzY2NCwxMjQyLjQ0MTQiIHN0eWxlPSJzdHJva2U6I0IzOEQyMjtzdHJva2Utd2lkdGg6MTsiLz48dGV4dCBmaWxsPSIjMDAwMDAwIiBmb250LWZhbWlseT0ic2Fucy1zZXJpZiIgZm9udC1zaXplPSIxMyIgbGVuZ3RoQWRqdXN0PSJzcGFjaW5nIiB0ZXh0TGVuZ3RoPSIxNjkiIHg9IjQxLjc2NjQiIHk9IjEyNDguMjczNCI+bGluZTpkb3R0ZWQ7bGluZS5jb2xvcj1yZWQ8L3RleHQ+PHRleHQgZmlsbD0iIzAwMDAwMCIgZm9udC1mYW1pbHk9InNhbnMtc2VyaWYiIGZvbnQtc2l6ZT0iMTMiIGxlbmd0aEFkanVzdD0ic3BhY2luZyIgdGV4dExlbmd0aD0iMjE0LjUiIHg9IjYiIHk9IjE4MDEuMzU4NiI+KEJhY2twcm9wYWdhdGlvbiBkdXJpbmcgVHJhaW5pbmcpPC90ZXh0PjwvZz48IS0tU1JDPVtYTFBqSm5pdjRGdy1sc0FxOXZMNEc0ZTJiTGZFRUxxOGU0QzdiMkRmbHowQWNSTXBpVFpPRVRqQmNwbG50c182elplUnRldUY5MWRGWjl6dl83WjZNdDBpTU1kTzBnUklMSTlwejF5a0QxU0xaNG1uYnF1S2haTzJjRTltcDFvM3FxaF9vQjhqY0JXTFVqZ3dCOExyS1lsZXcyTHppY2U3NWtuVU05MEVBZ3RsV1M0VFZiTW80QVFSc05rZmJlbXNCRkhZZ1BMR0JjR29rMTVKOU05T2tvWjR5VmZnaWk2XzZVM1ZqUXVMN3NrWlg4NzFObFJPdGdsSURWel9EdXU1dFo3eFFhQWdrenlCRjlvZlBVcXlCTFQ2Qjhxa1hCTEliTGRBYUdTRlNaeDV2RUFSd2ltYXFkREI3anFTYzBxdlphLXBUSU52TDJ1NGQwaGNJSnpIZkxIMjZDb0JxSUZFMFJUdU5zWUJJNVZsdnhlc0Mwa2tEWUlDV0haTnBaYUg1VnZlNVlycS1lRmtEX0tFZmlvS21hNTdzamk3TGFjLWFJQzRQTGQ0MkJreGx4TkpoeC1zTHZnV0JIVzRjZ25tSUpoZGNkNVhpZEprYTl6RmZYVkgyLWlSNnFvMmFYOV9ycThYZFExZEswYkxrWmRxRm1MaXFSY1RPdnFQS25tblh2ZjVKM1RNX1lFNi11RmxFdDM1RTJWSldzSWVrUWgyRk12ZEFrSUJhRGh5MXF4RXNQc2VSOURuMV9oMUZ3cFFCRGtlcnBGR0c2a2c5Ymo4M3VVR1RvUW5BaFpmVnk5cTEybmtUVEZfdGVLYmF5UmNNR29Xc0JXTDFOaUNXWlVjZEZaVHh5NXFCazBkS0habHdveEtmNDJPYVRmV2ZXc0tIalRCNGNLbXZJdGRaWl9OR18ydnVRT2ZDczMzT2lDRFExNXBwYlE4aDB5VExJemtBX2ZYWHY0TGx0SEt3VTgtWFpxOUZQOVNxYV9WN08xMDhCNXBvUmJHbW0tZUhQX2FJRDkyMmJTUWZNMWFFTlNhV3gyOE43b2s3THNnb1Btam5NN2hVMFp0dGsyV2N4c3FfcUxURVJkeFhzMFN5QzFja29GZEszZzhYYzJXckd1RlRlM0JuVDJkeTZZSW9vazBxWmZZLWNpN19qbzFoeVl4TlpIOGpTVnY4WGhGcmdLc1l5M1R2VGZmMnd3NWJSbjZhaVBRZ1MwT3dqVkROeWdKVkMtbkhwMUlGeTQ3YkN3dzNGRzlnb2IxZm1sdlRZWUh5cWtLbWNRMWJQWTUtaThZTGFUVHZucWNFbC0yRW9ZNFZIamdXc3E0NG4zU0xkd0ZrRDB3V3FXNm9SYkRjQnlESEJYR2JZcEVDNk1Oc2dCNElSTjlqUGtkSkVqbVZ3eWt0eXZvbnVoeExkMkJ1OUVWb3FlTUVFSE1PRVZ3MXBZeUduUERwa19TNTlHMlMyQ0ZGaDZIZHQ3MnVMUi1NRkFkWmlfdkpmUWRZVEJuaEhDelBXYmpNeHMyQUhZTGZINGJZdzhURkdaM0lXNFFGckVfOTJnUUZhS25Mcmc3R1pRTHNvb3pTUGRNNXdhNXV0R0N1dWhYWjlqOXQ5R2tLdldNT3QtbE5ocHRpVjJyQldTVlNVdmlIcDVqbXg3SEl6R0NURlB3LXQ3c1pGamw5WGZ5ejdhUXZxNW9uYTFRUUtvRkJuR1VhUnZVemxFUTl4OVNRQ2JYWDNWbm1QRmxEdXhjZnp1bnh2TkhULW5FZWdRYVUzdjFXWEZ2dTFKOVdZWDNIcHZKSlhYZ2FGdzV2S0tWcktCQVFIclJpbjdNNTlnb1J4cjFHaWREM3NMVlNIUnV5U01Kak9zLUFQM2lSTUlGRDZBUTdlR1o5U3ViZm5ETXdjd2pRUEtRVDFmTWFwSjZkbW9OdDMtWjNkZ09yNWVPaXdnZUFuUFVhNUYzZkNCemtrczlWM0ctOFN5dWh3c2JZNm9aTUpMTXRGdThOclhjMU1FM2ZqcUp2TDFYZ29uaGJIUmRTYXBKM0RhRDh5N3hxOENKVjFGTDNKMXd1d2hvX0xUdzlkYlJEbWpsb2hwYlRZNlNhR01ULVFXZVFpRUE1Vm9FS3plQ3p0Zk8tbE5kQ09vLVo4Q0NBRWV2Qmg4SVh1N2EzSTdiNnJXUm53Y2ZITm9oMTVnUl9XT3A1OTdsUUtONTNGUWhCOTdLd3hNRjItTFB0RUZwVFNiMlRtNVVxdENKcWI3YXkwa3J6cUVraUdOcE4tYngzdnpIc1dvRHVGeTFdLS0+PC9nPjwvc3ZnPg==;" vertex="1" parent="1">
            <mxGeometry x="-360" y="-1360" width="816" height="1872" as="geometry" />
          </mxCell>
        </UserObject>
      </root>
    </mxGraphModel>
  </diagram>
</mxfile>
